<svg xmlns="http://www.w3.org/2000/svg" xmlns:xlink="http://www.w3.org/1999/xlink" width="200" zoomAndPan="magnify" viewBox="0 0 150 149.999998" height="200" preserveAspectRatio="xMidYMid meet" version="1.0"><defs><clipPath id="70f51b3833"><path d="M 2.34375 0 L 147 0 L 147 150 L 2.34375 150 Z M 2.34375 0 " clip-rule="nonzero"/></clipPath></defs><g clip-path="url(#70f51b3833)"><path fill="#e08538" d="M 42.671875 111.492188 C 42.671875 111.179688 42.730469 110.882812 42.847656 110.59375 C 42.96875 110.308594 43.136719 110.054688 43.355469 109.835938 C 43.578125 109.613281 43.832031 109.445312 44.117188 109.328125 C 44.40625 109.207031 44.703125 109.148438 45.015625 109.148438 L 63.015625 109.148438 C 63.324219 109.148438 63.625 109.207031 63.910156 109.328125 C 64.199219 109.445312 64.453125 109.613281 64.671875 109.835938 C 64.890625 110.054688 65.058594 110.308594 65.179688 110.59375 C 65.296875 110.882812 65.359375 111.179688 65.359375 111.492188 C 65.359375 111.804688 65.296875 112.101562 65.179688 112.390625 C 65.058594 112.675781 64.890625 112.929688 64.671875 113.148438 C 64.453125 113.371094 64.199219 113.539062 63.910156 113.65625 C 63.625 113.777344 63.324219 113.835938 63.015625 113.835938 L 45.015625 113.835938 C 44.703125 113.835938 44.40625 113.777344 44.117188 113.65625 C 43.832031 113.539062 43.578125 113.367188 43.359375 113.148438 C 43.136719 112.929688 42.96875 112.675781 42.851562 112.390625 C 42.730469 112.101562 42.671875 111.804688 42.671875 111.492188 Z M 35.371094 124.957031 L 19.464844 124.957031 L 19.464844 109.050781 L 35.371094 109.050781 Z M 37.714844 104.363281 L 17.121094 104.363281 C 16.8125 104.363281 16.511719 104.421875 16.226562 104.542969 C 15.9375 104.660156 15.683594 104.832031 15.464844 105.050781 C 15.246094 105.269531 15.074219 105.523438 14.957031 105.8125 C 14.835938 106.097656 14.777344 106.398438 14.777344 106.707031 L 14.777344 127.300781 C 14.777344 127.609375 14.835938 127.910156 14.957031 128.195312 C 15.074219 128.484375 15.246094 128.738281 15.464844 128.957031 C 15.683594 129.175781 15.9375 129.347656 16.226562 129.464844 C 16.511719 129.585938 16.8125 129.644531 17.121094 129.644531 L 37.714844 129.644531 C 38.023438 129.644531 38.324219 129.585938 38.609375 129.464844 C 38.898438 129.347656 39.152344 129.175781 39.371094 128.957031 C 39.589844 128.738281 39.761719 128.484375 39.878906 128.195312 C 40 127.910156 40.058594 127.609375 40.058594 127.300781 L 40.058594 106.707031 C 40.058594 106.398438 40 106.097656 39.878906 105.8125 C 39.761719 105.523438 39.589844 105.269531 39.371094 105.050781 C 39.152344 104.832031 38.898438 104.660156 38.609375 104.542969 C 38.324219 104.421875 38.023438 104.363281 37.714844 104.363281 Z M 42.671875 79.304688 C 42.671875 78.992188 42.730469 78.691406 42.847656 78.40625 C 42.96875 78.117188 43.136719 77.867188 43.355469 77.644531 C 43.578125 77.425781 43.832031 77.257812 44.117188 77.136719 C 44.40625 77.019531 44.703125 76.960938 45.015625 76.960938 L 63.015625 76.960938 C 63.324219 76.960938 63.625 77.019531 63.910156 77.136719 C 64.199219 77.257812 64.453125 77.425781 64.671875 77.644531 C 64.890625 77.867188 65.058594 78.117188 65.179688 78.40625 C 65.296875 78.691406 65.359375 78.992188 65.359375 79.304688 C 65.359375 79.613281 65.296875 79.914062 65.179688 80.199219 C 65.058594 80.488281 64.890625 80.742188 64.671875 80.960938 C 64.453125 81.179688 64.199219 81.347656 63.910156 81.46875 C 63.625 81.585938 63.324219 81.648438 63.015625 81.648438 L 45.015625 81.648438 C 44.703125 81.648438 44.40625 81.585938 44.117188 81.46875 C 43.832031 81.347656 43.578125 81.179688 43.355469 80.960938 C 43.136719 80.742188 42.96875 80.488281 42.847656 80.199219 C 42.730469 79.914062 42.671875 79.613281 42.671875 79.304688 Z M 35.371094 92.769531 L 19.464844 92.769531 L 19.464844 76.863281 L 35.371094 76.863281 Z M 37.714844 72.175781 L 17.121094 72.175781 C 16.8125 72.175781 16.511719 72.234375 16.226562 72.351562 C 15.9375 72.472656 15.683594 72.640625 15.464844 72.863281 C 15.246094 73.082031 15.074219 73.335938 14.957031 73.621094 C 14.835938 73.910156 14.777344 74.207031 14.777344 74.519531 L 14.777344 95.113281 C 14.777344 95.421875 14.835938 95.722656 14.957031 96.007812 C 15.074219 96.296875 15.246094 96.550781 15.464844 96.769531 C 15.683594 96.988281 15.9375 97.15625 16.226562 97.277344 C 16.511719 97.394531 16.8125 97.453125 17.121094 97.453125 L 37.714844 97.453125 C 38.023438 97.453125 38.324219 97.394531 38.609375 97.277344 C 38.898438 97.15625 39.152344 96.988281 39.371094 96.769531 C 39.589844 96.550781 39.761719 96.296875 39.878906 96.007812 C 39.996094 95.722656 40.058594 95.421875 40.058594 95.113281 L 40.058594 74.519531 C 40.058594 74.207031 40 73.910156 39.878906 73.621094 C 39.761719 73.335938 39.589844 73.082031 39.371094 72.863281 C 39.152344 72.640625 38.898438 72.472656 38.609375 72.355469 C 38.324219 72.234375 38.023438 72.175781 37.714844 72.175781 Z M 42.671875 58.140625 C 42.671875 57.832031 42.730469 57.53125 42.847656 57.246094 C 42.96875 56.957031 43.136719 56.703125 43.355469 56.484375 C 43.578125 56.265625 43.832031 56.09375 44.117188 55.976562 C 44.40625 55.855469 44.703125 55.796875 45.015625 55.796875 L 88.308594 55.796875 C 88.621094 55.796875 88.917969 55.855469 89.207031 55.976562 C 89.492188 56.09375 89.746094 56.265625 89.964844 56.484375 C 90.183594 56.703125 90.355469 56.957031 90.472656 57.246094 C 90.59375 57.53125 90.652344 57.832031 90.652344 58.140625 C 90.652344 58.453125 90.59375 58.75 90.472656 59.039062 C 90.355469 59.324219 90.183594 59.578125 89.964844 59.800781 C 89.746094 60.019531 89.492188 60.1875 89.207031 60.308594 C 88.917969 60.425781 88.621094 60.484375 88.308594 60.484375 L 45.015625 60.484375 C 44.703125 60.484375 44.40625 60.425781 44.117188 60.308594 C 43.832031 60.1875 43.578125 60.019531 43.355469 59.800781 C 43.136719 59.578125 42.96875 59.324219 42.847656 59.039062 C 42.730469 58.75 42.671875 58.453125 42.671875 58.140625 Z M 42.671875 47.113281 C 42.671875 46.804688 42.730469 46.503906 42.851562 46.21875 C 42.96875 45.929688 43.136719 45.675781 43.359375 45.457031 C 43.578125 45.238281 43.832031 45.066406 44.117188 44.949219 C 44.40625 44.832031 44.703125 44.769531 45.015625 44.769531 L 63.015625 44.769531 C 63.324219 44.769531 63.625 44.828125 63.910156 44.949219 C 64.199219 45.066406 64.453125 45.238281 64.671875 45.457031 C 64.890625 45.675781 65.058594 45.929688 65.179688 46.21875 C 65.296875 46.503906 65.359375 46.804688 65.359375 47.113281 C 65.359375 47.425781 65.296875 47.722656 65.179688 48.011719 C 65.058594 48.296875 64.890625 48.550781 64.671875 48.769531 C 64.453125 48.992188 64.199219 49.160156 63.910156 49.28125 C 63.625 49.398438 63.324219 49.457031 63.015625 49.457031 L 45.015625 49.457031 C 44.703125 49.457031 44.40625 49.398438 44.117188 49.28125 C 43.832031 49.160156 43.578125 48.992188 43.355469 48.769531 C 43.136719 48.550781 42.96875 48.296875 42.847656 48.011719 C 42.730469 47.722656 42.671875 47.425781 42.671875 47.113281 Z M 35.371094 60.582031 L 19.464844 60.582031 L 19.464844 44.679688 L 35.371094 44.679688 Z M 37.714844 39.988281 L 17.121094 39.988281 C 16.8125 39.988281 16.511719 40.050781 16.226562 40.167969 C 15.9375 40.289062 15.683594 40.457031 15.464844 40.675781 C 15.246094 40.894531 15.074219 41.148438 14.957031 41.4375 C 14.835938 41.722656 14.777344 42.023438 14.777344 42.332031 L 14.777344 62.925781 C 14.777344 63.238281 14.835938 63.535156 14.957031 63.824219 C 15.074219 64.109375 15.246094 64.363281 15.464844 64.582031 C 15.683594 64.804688 15.9375 64.972656 16.226562 65.089844 C 16.511719 65.210938 16.8125 65.269531 17.121094 65.269531 L 37.714844 65.269531 C 38.023438 65.269531 38.324219 65.210938 38.609375 65.089844 C 38.898438 64.972656 39.152344 64.804688 39.371094 64.582031 C 39.589844 64.363281 39.761719 64.109375 39.878906 63.824219 C 40 63.535156 40.058594 63.238281 40.058594 62.925781 L 40.058594 42.335938 C 40.058594 42.023438 40 41.722656 39.878906 41.4375 C 39.761719 41.148438 39.589844 40.894531 39.371094 40.675781 C 39.152344 40.457031 38.898438 40.289062 38.609375 40.167969 C 38.324219 40.050781 38.023438 39.992188 37.714844 39.992188 Z M 131.546875 26.113281 C 132.378906 25.964844 133.214844 25.945312 134.054688 26.046875 C 134.890625 26.148438 135.699219 26.371094 136.46875 26.710938 C 137.242188 27.050781 137.949219 27.496094 138.589844 28.046875 C 139.230469 28.597656 139.777344 29.230469 140.234375 29.941406 C 140.6875 30.652344 141.027344 31.417969 141.253906 32.230469 C 141.484375 33.042969 141.589844 33.871094 141.570312 34.714844 C 141.554688 35.558594 141.414062 36.382812 141.152344 37.1875 C 140.890625 37.988281 140.519531 38.738281 140.035156 39.429688 L 138.863281 41.109375 L 124.882812 31.324219 C 124.910156 31.265625 124.933594 31.203125 124.953125 31.144531 L 126.019531 29.617188 C 126.671875 28.683594 127.476562 27.917969 128.433594 27.308594 C 129.390625 26.703125 130.429688 26.304688 131.546875 26.113281 Z M 120.390625 125.632812 L 103.015625 125.632812 L 103.015625 100.773438 C 103.015625 100.679688 103.007812 100.589844 103 100.496094 L 120.390625 75.660156 Z M 7.105469 145.296875 L 98.332031 145.296875 L 98.332031 107.167969 L 95.066406 111.824219 C 94.828125 112.167969 94.515625 112.429688 94.136719 112.605469 L 77.910156 120.171875 L 88.308594 120.171875 C 88.621094 120.171875 88.917969 120.230469 89.207031 120.351562 C 89.492188 120.46875 89.746094 120.640625 89.964844 120.859375 C 90.183594 121.078125 90.355469 121.332031 90.472656 121.621094 C 90.59375 121.90625 90.652344 122.207031 90.652344 122.515625 C 90.652344 122.828125 90.59375 123.125 90.472656 123.414062 C 90.355469 123.699219 90.183594 123.953125 89.964844 124.171875 C 89.746094 124.394531 89.492188 124.5625 89.207031 124.679688 C 88.917969 124.800781 88.621094 124.859375 88.308594 124.859375 L 45.015625 124.859375 C 44.703125 124.859375 44.40625 124.800781 44.117188 124.679688 C 43.832031 124.5625 43.578125 124.394531 43.355469 124.171875 C 43.136719 123.953125 42.96875 123.699219 42.847656 123.414062 C 42.730469 123.125 42.671875 122.828125 42.671875 122.515625 C 42.671875 122.207031 42.730469 121.90625 42.847656 121.621094 C 42.96875 121.332031 43.136719 121.078125 43.355469 120.859375 C 43.578125 120.640625 43.832031 120.46875 44.117188 120.351562 C 44.40625 120.230469 44.703125 120.171875 45.015625 120.171875 L 71.101562 120.171875 C 71.054688 119.949219 71.039062 119.71875 71.058594 119.488281 L 72.957031 97.777344 C 72.996094 97.359375 73.132812 96.980469 73.375 96.636719 L 76.121094 92.710938 L 45.101562 92.710938 C 44.789062 92.710938 44.488281 92.652344 44.203125 92.535156 C 43.914062 92.414062 43.664062 92.246094 43.441406 92.027344 C 43.222656 91.804688 43.054688 91.554688 42.933594 91.265625 C 42.816406 90.980469 42.757812 90.679688 42.757812 90.367188 C 42.757812 90.058594 42.816406 89.757812 42.933594 89.472656 C 43.054688 89.183594 43.222656 88.929688 43.441406 88.710938 C 43.664062 88.492188 43.914062 88.324219 44.203125 88.203125 C 44.488281 88.085938 44.789062 88.023438 45.101562 88.023438 L 79.402344 88.023438 L 98.347656 60.972656 C 98.335938 60.886719 98.332031 60.800781 98.332031 60.714844 L 98.332031 24.335938 L 7.105469 24.335938 Z M 29.164062 4.671875 L 29.164062 19.648438 L 100.671875 19.648438 C 100.984375 19.648438 101.28125 19.707031 101.570312 19.828125 C 101.855469 19.945312 102.109375 20.117188 102.332031 20.335938 C 102.550781 20.554688 102.71875 20.808594 102.839844 21.09375 C 102.957031 21.382812 103.015625 21.683594 103.015625 21.992188 L 103.015625 54.300781 L 120.390625 29.488281 L 120.390625 4.671875 Z M 77.332031 101.570312 L 89.078125 109.796875 L 76.082031 115.855469 Z M 92.898438 106.753906 L 131.988281 50.925781 L 117.976562 41.109375 L 78.882812 96.9375 L 92.898438 106.75 Z M 134.675781 47.085938 L 136.171875 44.949219 L 122.15625 35.136719 L 120.664062 37.269531 Z M 122.734375 -0.015625 L 26.820312 -0.015625 C 26.511719 -0.015625 26.210938 0.046875 25.925781 0.164062 C 25.636719 0.285156 25.382812 0.453125 25.164062 0.671875 C 24.945312 0.890625 24.773438 1.144531 24.65625 1.433594 C 24.535156 1.71875 24.476562 2.019531 24.476562 2.328125 L 24.476562 19.648438 L 4.761719 19.648438 C 4.449219 19.648438 4.152344 19.707031 3.863281 19.828125 C 3.578125 19.945312 3.324219 20.117188 3.101562 20.335938 C 2.882812 20.554688 2.714844 20.808594 2.59375 21.09375 C 2.476562 21.382812 2.417969 21.683594 2.417969 21.992188 L 2.417969 147.640625 C 2.417969 147.953125 2.476562 148.25 2.59375 148.539062 C 2.714844 148.824219 2.882812 149.078125 3.101562 149.296875 C 3.324219 149.519531 3.578125 149.6875 3.863281 149.804688 C 4.152344 149.925781 4.449219 149.984375 4.761719 149.984375 L 100.671875 149.984375 C 100.984375 149.984375 101.28125 149.925781 101.570312 149.804688 C 101.855469 149.6875 102.109375 149.519531 102.332031 149.296875 C 102.550781 149.078125 102.71875 148.824219 102.839844 148.539062 C 102.957031 148.25 103.015625 147.953125 103.015625 147.640625 L 103.015625 130.320312 L 122.734375 130.320312 C 123.042969 130.320312 123.34375 130.261719 123.628906 130.140625 C 123.917969 130.023438 124.171875 129.851562 124.390625 129.632812 C 124.609375 129.414062 124.78125 129.160156 124.898438 128.875 C 125.019531 128.585938 125.078125 128.289062 125.078125 127.976562 L 125.078125 68.964844 L 143.875 42.117188 C 144.320312 41.476562 144.707031 40.800781 145.035156 40.09375 C 145.363281 39.382812 145.625 38.652344 145.820312 37.898438 C 146.019531 37.140625 146.148438 36.375 146.210938 35.597656 C 146.273438 34.820312 146.265625 34.042969 146.191406 33.265625 C 146.113281 32.488281 145.972656 31.726562 145.761719 30.972656 C 145.550781 30.222656 145.277344 29.496094 144.9375 28.792969 C 144.597656 28.089844 144.199219 27.421875 143.742188 26.789062 C 143.285156 26.15625 142.777344 25.570312 142.214844 25.027344 C 141.652344 24.484375 141.050781 23.992188 140.402344 23.558594 C 139.753906 23.121094 139.074219 22.746094 138.359375 22.429688 C 137.648438 22.117188 136.910156 21.867188 136.152344 21.679688 C 135.394531 21.496094 134.625 21.378906 133.847656 21.328125 C 133.070312 21.277344 132.292969 21.296875 131.515625 21.386719 C 130.742188 21.472656 129.980469 21.628906 129.230469 21.851562 C 128.484375 22.074219 127.761719 22.359375 127.0625 22.710938 C 126.367188 23.058594 125.703125 23.46875 125.078125 23.9375 L 125.078125 2.328125 C 125.078125 2.019531 125.019531 1.71875 124.902344 1.433594 C 124.78125 1.144531 124.613281 0.890625 124.390625 0.671875 C 124.171875 0.453125 123.917969 0.28125 123.632812 0.164062 C 123.34375 0.046875 123.046875 -0.015625 122.734375 -0.015625 Z M 122.734375 -0.015625 " fill-opacity="1" fill-rule="evenodd"/></g></svg>