<svg xmlns="http://www.w3.org/2000/svg" xmlns:xlink="http://www.w3.org/1999/xlink" width="200" zoomAndPan="magnify" viewBox="0 0 150 149.999998" height="200" preserveAspectRatio="xMidYMid meet" version="1.0"><path fill="#e08538" d="M 57.648438 54.988281 L 62.40625 54.988281 L 62.40625 49.988281 L 57.648438 49.988281 L 57.648438 54.988281 " fill-opacity="1" fill-rule="nonzero"/><path fill="#e08538" d="M 57.488281 69.984375 L 52.488281 69.984375 L 52.488281 77.480469 L 57.488281 77.480469 L 57.488281 69.984375 " fill-opacity="1" fill-rule="nonzero"/><path fill="#e08538" d="M 67.484375 69.984375 L 62.484375 69.984375 L 62.484375 77.480469 L 67.484375 77.480469 L 67.484375 69.984375 " fill-opacity="1" fill-rule="nonzero"/><path fill="#e08538" d="M 77.480469 69.984375 L 72.484375 69.984375 L 72.484375 77.480469 L 77.480469 77.480469 L 77.480469 69.984375 " fill-opacity="1" fill-rule="nonzero"/><path fill="#e08538" d="M 87.480469 69.984375 L 82.480469 69.984375 L 82.480469 77.480469 L 87.480469 77.480469 L 87.480469 69.984375 " fill-opacity="1" fill-rule="nonzero"/><path fill="#e08538" d="M 82.480469 32.492188 L 87.480469 32.492188 L 87.480469 24.996094 L 82.480469 24.996094 L 82.480469 32.492188 " fill-opacity="1" fill-rule="nonzero"/><path fill="#e08538" d="M 92.476562 32.492188 L 97.476562 32.492188 L 97.476562 24.996094 L 92.476562 24.996094 L 92.476562 32.492188 " fill-opacity="1" fill-rule="nonzero"/><path fill="#e08538" d="M 107.476562 24.996094 L 102.476562 24.996094 L 102.476562 32.492188 L 107.476562 32.492188 L 107.476562 24.996094 " fill-opacity="1" fill-rule="nonzero"/><path fill="#e08538" d="M 117.472656 24.996094 L 112.472656 24.996094 L 112.472656 32.492188 L 117.472656 32.492188 L 117.472656 24.996094 " fill-opacity="1" fill-rule="nonzero"/><path fill="#e08538" d="M 82.480469 44.988281 L 87.480469 44.988281 L 87.480469 37.492188 L 82.480469 37.492188 L 82.480469 44.988281 " fill-opacity="1" fill-rule="nonzero"/><path fill="#e08538" d="M 92.476562 44.988281 L 97.476562 44.988281 L 97.476562 37.492188 L 92.476562 37.492188 L 92.476562 44.988281 " fill-opacity="1" fill-rule="nonzero"/><path fill="#e08538" d="M 107.476562 37.492188 L 102.476562 37.492188 L 102.476562 44.988281 L 107.476562 44.988281 L 107.476562 37.492188 " fill-opacity="1" fill-rule="nonzero"/><path fill="#e08538" d="M 117.472656 37.492188 L 112.472656 37.492188 L 112.472656 44.988281 L 117.472656 44.988281 L 117.472656 37.492188 " fill-opacity="1" fill-rule="nonzero"/><path fill="#e08538" d="M 117.472656 49.988281 L 112.472656 49.988281 L 112.472656 57.488281 L 117.472656 57.488281 L 117.472656 49.988281 " fill-opacity="1" fill-rule="nonzero"/><path fill="#e08538" d="M 117.472656 62.484375 L 112.472656 62.484375 L 112.472656 69.984375 L 117.472656 69.984375 L 117.472656 62.484375 " fill-opacity="1" fill-rule="nonzero"/><path fill="#e08538" d="M 97.476562 69.984375 L 92.476562 69.984375 L 92.476562 77.480469 L 97.476562 77.480469 L 97.476562 69.984375 " fill-opacity="1" fill-rule="nonzero"/><path fill="#e08538" d="M 57.488281 82.480469 L 52.488281 82.480469 L 52.488281 89.980469 L 57.488281 89.980469 L 57.488281 82.480469 " fill-opacity="1" fill-rule="nonzero"/><path fill="#e08538" d="M 67.484375 82.480469 L 62.484375 82.480469 L 62.484375 89.980469 L 67.484375 89.980469 L 67.484375 82.480469 " fill-opacity="1" fill-rule="nonzero"/><path fill="#e08538" d="M 72.484375 89.980469 L 77.480469 89.980469 L 77.480469 82.480469 L 72.484375 82.480469 L 72.484375 89.980469 " fill-opacity="1" fill-rule="nonzero"/><path fill="#e08538" d="M 82.480469 89.980469 L 87.480469 89.980469 L 87.480469 82.480469 L 82.480469 82.480469 L 82.480469 89.980469 " fill-opacity="1" fill-rule="nonzero"/><path fill="#e08538" d="M 92.476562 89.980469 L 97.476562 89.980469 L 97.476562 82.480469 L 92.476562 82.480469 L 92.476562 89.980469 " fill-opacity="1" fill-rule="nonzero"/><path fill="#e08538" d="M 57.488281 94.976562 L 52.488281 94.976562 L 52.488281 102.476562 L 57.488281 102.476562 L 57.488281 94.976562 " fill-opacity="1" fill-rule="nonzero"/><path fill="#e08538" d="M 67.484375 94.976562 L 62.484375 94.976562 L 62.484375 102.476562 L 67.484375 102.476562 L 67.484375 94.976562 " fill-opacity="1" fill-rule="nonzero"/><path fill="#e08538" d="M 72.484375 102.476562 L 77.480469 102.476562 L 77.480469 94.976562 L 72.484375 94.976562 L 72.484375 102.476562 " fill-opacity="1" fill-rule="nonzero"/><path fill="#e08538" d="M 82.480469 102.476562 L 87.480469 102.476562 L 87.480469 94.976562 L 82.480469 94.976562 L 82.480469 102.476562 " fill-opacity="1" fill-rule="nonzero"/><path fill="#e08538" d="M 92.476562 102.476562 L 97.476562 102.476562 L 97.476562 94.976562 L 92.476562 94.976562 L 92.476562 102.476562 " fill-opacity="1" fill-rule="nonzero"/><path fill="#e08538" d="M 52.488281 114.972656 L 57.488281 114.972656 L 57.488281 107.476562 L 52.488281 107.476562 L 52.488281 114.972656 " fill-opacity="1" fill-rule="nonzero"/><path fill="#e08538" d="M 62.484375 114.972656 L 67.484375 114.972656 L 67.484375 107.476562 L 62.484375 107.476562 L 62.484375 114.972656 " fill-opacity="1" fill-rule="nonzero"/><path fill="#e08538" d="M 22.496094 64.984375 L 27.492188 64.984375 L 27.492188 57.488281 L 22.496094 57.488281 L 22.496094 64.984375 " fill-opacity="1" fill-rule="nonzero"/><path fill="#e08538" d="M 37.492188 57.488281 L 32.492188 57.488281 L 32.492188 64.984375 L 37.492188 64.984375 L 37.492188 57.488281 " fill-opacity="1" fill-rule="nonzero"/><path fill="#e08538" d="M 22.496094 52.488281 L 27.492188 52.488281 L 27.492188 44.988281 L 22.496094 44.988281 L 22.496094 52.488281 " fill-opacity="1" fill-rule="nonzero"/><path fill="#e08538" d="M 37.492188 44.988281 L 32.492188 44.988281 L 32.492188 52.488281 L 37.492188 52.488281 L 37.492188 44.988281 " fill-opacity="1" fill-rule="nonzero"/><path fill="#e08538" d="M 22.496094 127.46875 L 27.492188 127.46875 L 27.492188 119.972656 L 22.496094 119.972656 L 22.496094 127.46875 " fill-opacity="1" fill-rule="nonzero"/><path fill="#e08538" d="M 37.492188 119.972656 L 32.492188 119.972656 L 32.492188 127.46875 L 37.492188 127.46875 L 37.492188 119.972656 " fill-opacity="1" fill-rule="nonzero"/><path fill="#e08538" d="M 22.496094 77.480469 L 27.492188 77.480469 L 27.492188 69.984375 L 22.496094 69.984375 L 22.496094 77.480469 " fill-opacity="1" fill-rule="nonzero"/><path fill="#e08538" d="M 37.492188 69.984375 L 32.492188 69.984375 L 32.492188 77.480469 L 37.492188 77.480469 L 37.492188 69.984375 " fill-opacity="1" fill-rule="nonzero"/><path fill="#e08538" d="M 22.496094 89.980469 L 27.492188 89.980469 L 27.492188 82.480469 L 22.496094 82.480469 L 22.496094 89.980469 " fill-opacity="1" fill-rule="nonzero"/><path fill="#e08538" d="M 37.492188 82.480469 L 32.492188 82.480469 L 32.492188 89.980469 L 37.492188 89.980469 L 37.492188 82.480469 " fill-opacity="1" fill-rule="nonzero"/><path fill="#e08538" d="M 22.496094 102.476562 L 27.492188 102.476562 L 27.492188 94.976562 L 22.496094 94.976562 L 22.496094 102.476562 " fill-opacity="1" fill-rule="nonzero"/><path fill="#e08538" d="M 37.492188 94.976562 L 32.492188 94.976562 L 32.492188 102.476562 L 37.492188 102.476562 L 37.492188 94.976562 " fill-opacity="1" fill-rule="nonzero"/><path fill="#e08538" d="M 22.496094 114.972656 L 27.492188 114.972656 L 27.492188 107.476562 L 22.496094 107.476562 L 22.496094 114.972656 " fill-opacity="1" fill-rule="nonzero"/><path fill="#e08538" d="M 37.492188 107.476562 L 32.492188 107.476562 L 32.492188 114.972656 L 37.492188 114.972656 L 37.492188 107.476562 " fill-opacity="1" fill-rule="nonzero"/><path fill="#e08538" d="M 72.484375 114.972656 L 77.480469 114.972656 L 77.480469 107.476562 L 72.484375 107.476562 L 72.484375 114.972656 " fill-opacity="1" fill-rule="nonzero"/><path fill="#e08538" d="M 82.480469 114.972656 L 87.480469 114.972656 L 87.480469 107.476562 L 82.480469 107.476562 L 82.480469 114.972656 " fill-opacity="1" fill-rule="nonzero"/><path fill="#e08538" d="M 92.476562 114.972656 L 97.476562 114.972656 L 97.476562 107.476562 L 92.476562 107.476562 L 92.476562 114.972656 " fill-opacity="1" fill-rule="nonzero"/><path fill="#e08538" d="M 112.472656 102.476562 L 117.472656 102.476562 L 117.472656 94.976562 L 112.472656 94.976562 L 112.472656 102.476562 " fill-opacity="1" fill-rule="nonzero"/><path fill="#e08538" d="M 122.472656 102.476562 L 127.46875 102.476562 L 127.46875 94.976562 L 122.472656 94.976562 L 122.472656 102.476562 " fill-opacity="1" fill-rule="nonzero"/><path fill="#e08538" d="M 112.472656 114.972656 L 117.472656 114.972656 L 117.472656 107.476562 L 112.472656 107.476562 L 112.472656 114.972656 " fill-opacity="1" fill-rule="nonzero"/><path fill="#e08538" d="M 122.472656 114.972656 L 127.46875 114.972656 L 127.46875 107.476562 L 122.472656 107.476562 L 122.472656 114.972656 " fill-opacity="1" fill-rule="nonzero"/><path fill="#e08538" d="M 112.472656 127.46875 L 117.472656 127.46875 L 117.472656 119.972656 L 112.472656 119.972656 L 112.472656 127.46875 " fill-opacity="1" fill-rule="nonzero"/><path fill="#e08538" d="M 122.472656 127.46875 L 127.46875 127.46875 L 127.46875 119.972656 L 122.472656 119.972656 L 122.472656 127.46875 " fill-opacity="1" fill-rule="nonzero"/><path fill="#e08538" d="M 122.472656 144.964844 L 122.472656 137.46875 L 117.472656 137.46875 L 117.472656 144.964844 L 107.476562 144.964844 L 107.476562 84.980469 L 132.46875 84.980469 L 132.46875 144.964844 Z M 72.484375 144.964844 L 72.484375 134.96875 L 77.480469 134.96875 L 77.480469 144.964844 Z M 77.480469 49.988281 L 77.480469 14.996094 L 122.472656 14.996094 L 122.472656 79.980469 L 117.472656 79.980469 L 117.472656 74.984375 L 112.472656 74.984375 L 112.472656 79.980469 L 107.476562 79.980469 L 107.476562 52.488281 C 107.476562 51.105469 106.355469 49.988281 104.976562 49.988281 Z M 27.492188 137.46875 L 27.492188 144.964844 L 17.496094 144.964844 L 17.496094 39.992188 L 42.488281 39.992188 L 42.488281 144.964844 L 32.492188 144.964844 L 32.492188 137.46875 Z M 137.46875 82.480469 C 137.46875 81.101562 136.351562 79.980469 134.96875 79.980469 L 127.46875 79.980469 L 127.46875 12.496094 C 127.46875 11.117188 126.351562 9.996094 124.972656 9.996094 L 112.472656 9.996094 L 112.472656 5 L 107.476562 5 L 107.476562 9.996094 L 102.476562 9.996094 L 102.476562 0 L 97.476562 0 L 97.476562 9.996094 L 74.984375 9.996094 C 73.601562 9.996094 72.484375 11.117188 72.484375 12.496094 L 72.484375 49.988281 L 67.402344 49.988281 L 67.402344 54.988281 L 102.476562 54.988281 L 102.476562 144.964844 L 82.480469 144.964844 L 82.480469 132.46875 C 82.480469 131.089844 81.363281 129.96875 79.980469 129.96875 L 69.984375 129.96875 C 68.601562 129.96875 67.484375 131.089844 67.484375 132.46875 L 67.484375 144.964844 L 47.488281 144.964844 L 47.488281 54.988281 L 52.648438 54.988281 L 52.648438 49.988281 L 47.488281 49.988281 L 47.488281 37.492188 C 47.488281 36.109375 46.371094 34.992188 44.988281 34.992188 L 37.492188 34.992188 L 37.492188 24.996094 L 32.492188 24.996094 L 32.492188 34.992188 L 27.492188 34.992188 L 27.492188 29.992188 L 22.496094 29.992188 L 22.496094 34.992188 L 14.996094 34.992188 C 13.613281 34.992188 12.496094 36.109375 12.496094 37.492188 L 12.496094 144.964844 L 0 144.964844 L 0 149.964844 L 149.964844 149.964844 L 149.964844 144.964844 L 137.46875 144.964844 L 137.46875 82.480469 " fill-opacity="1" fill-rule="nonzero"/></svg>
