<svg xmlns="http://www.w3.org/2000/svg" xmlns:xlink="http://www.w3.org/1999/xlink" zoomAndPan="magnify" preserveAspectRatio="xMidYMid meet" version="1.0" viewBox="1.06 41.28 147.88 67.43"><defs><clipPath id="4ac52086d3"><path d="M 1 41.34375 L 149 41.34375 L 149 108.84375 L 1 108.84375 Z M 1 41.34375 " clip-rule="nonzero"/></clipPath></defs><g clip-path="url(#4ac52086d3)"><path fill="#e08538" d="M 143.84375 41.28125 L 134.730469 41.28125 C 131.917969 41.28125 129.628906 43.570312 129.628906 46.382812 L 129.628906 47.574219 L 103.578125 47.574219 C 101.285156 47.574219 99.152344 48.609375 97.726562 50.417969 L 95.054688 53.820312 C 94.351562 54.710938 93.109375 54.96875 92.113281 54.441406 L 85.546875 50.949219 C 83.890625 50.070312 81.980469 49.847656 80.160156 50.324219 L 71.449219 52.617188 C 70.9375 52.75 70.390625 52.707031 69.910156 52.492188 L 61.394531 48.726562 C 59.34375 47.820312 57.011719 47.882812 55.011719 48.902344 L 47.050781 52.949219 C 46.3125 53.324219 45.421875 53.28125 44.726562 52.835938 L 38.367188 48.75 C 37.164062 47.976562 35.773438 47.570312 34.34375 47.570312 L 20.375 47.570312 L 20.375 46.375 C 20.375 43.566406 18.085938 41.277344 15.277344 41.277344 L 6.164062 41.277344 C 3.351562 41.277344 1.0625 43.566406 1.0625 46.375 L 1.0625 103.609375 C 1.0625 106.421875 3.351562 108.710938 6.164062 108.710938 L 15.277344 108.710938 C 18.085938 108.710938 20.375 106.421875 20.375 103.609375 L 20.375 102.417969 L 129.636719 102.417969 L 129.636719 103.609375 C 129.636719 106.421875 131.921875 108.710938 134.734375 108.710938 L 143.847656 108.710938 C 146.660156 108.710938 148.945312 106.421875 148.945312 103.609375 L 148.945312 46.375 C 148.945312 43.566406 146.660156 41.277344 143.847656 41.277344 Z M 35.609375 53.046875 L 41.96875 57.132812 C 44.179688 58.554688 47.015625 58.691406 49.359375 57.5 L 57.320312 53.453125 C 57.949219 53.136719 58.683594 53.113281 59.328125 53.398438 L 67.84375 57.164062 C 69.382812 57.84375 71.121094 57.984375 72.75 57.554688 L 81.457031 55.261719 C 82.039062 55.113281 82.632812 55.183594 83.152344 55.457031 L 89.71875 58.949219 C 92.898438 60.640625 96.832031 59.8125 99.0625 56.976562 L 101.734375 53.574219 C 102.183594 53.007812 102.855469 52.675781 103.578125 52.675781 L 118.570312 52.675781 C 117.546875 56.519531 115.914062 60.546875 113.8125 64.304688 C 112.722656 66.210938 111.113281 67.867188 109.152344 69.101562 C 105.167969 71.625 102.378906 74.46875 100.609375 77.792969 C 98.269531 82.253906 93.117188 84.734375 87.820312 84.003906 C 81.390625 83.101562 74.320312 79.875 69.160156 77.519531 L 68.414062 77.175781 C 63.292969 74.960938 58.960938 77.148438 55.472656 78.902344 C 53.164062 80.0625 50.964844 81.164062 48.707031 80.996094 C 43.558594 80.90625 41.605469 77.058594 38.933594 70.566406 C 38.785156 70.203125 38.554688 69.878906 38.257812 69.621094 C 33.855469 65.75 31.714844 60.179688 31.683594 52.679688 L 34.34375 52.679688 C 34.792969 52.679688 35.230469 52.808594 35.609375 53.050781 Z M 6.15625 103.617188 L 6.15625 46.382812 L 15.269531 46.382812 L 15.269531 103.617188 C 15.269531 103.617188 6.15625 103.617188 6.15625 103.617188 Z M 20.371094 97.324219 L 20.371094 52.675781 L 26.59375 52.675781 C 26.632812 61.371094 29.246094 68.226562 34.4375 73.035156 C 36.730469 78.597656 39.9375 85.9375 48.476562 86.082031 C 52.015625 86.355469 55.070312 84.808594 57.765625 83.453125 C 61.296875 81.671875 63.605469 80.648438 66.34375 81.832031 L 67.042969 82.152344 C 72.488281 84.640625 79.945312 88.046875 87.113281 89.050781 C 87.972656 89.167969 88.832031 89.230469 89.679688 89.230469 C 96.171875 89.230469 102.167969 85.789062 105.121094 80.171875 C 106.472656 77.625 108.625 75.472656 111.875 73.410156 C 114.535156 71.738281 116.734375 69.464844 118.25 66.816406 C 120.109375 63.5 122.484375 58.484375 123.84375 52.679688 L 129.628906 52.679688 L 129.628906 97.328125 L 20.371094 97.328125 Z M 134.730469 103.617188 L 134.730469 46.382812 L 143.84375 46.382812 L 143.84375 103.617188 C 143.84375 103.617188 134.730469 103.617188 134.730469 103.617188 Z M 77.550781 74.351562 C 77.550781 72.941406 78.691406 71.800781 80.097656 71.800781 C 81.507812 71.800781 82.648438 72.941406 82.648438 74.351562 C 82.648438 75.757812 81.507812 76.898438 80.097656 76.898438 C 78.691406 76.898438 77.550781 75.757812 77.550781 74.351562 Z M 99.847656 65.519531 C 99.847656 64.113281 100.988281 62.96875 102.398438 62.96875 C 103.804688 62.96875 104.945312 64.113281 104.945312 65.519531 C 104.945312 66.925781 103.804688 68.070312 102.398438 68.070312 C 100.988281 68.070312 99.847656 66.925781 99.847656 65.519531 Z M 90.625 73.644531 C 90.625 72.234375 91.765625 71.09375 93.175781 71.09375 C 94.582031 71.09375 95.722656 72.234375 95.722656 73.644531 C 95.722656 75.050781 94.582031 76.191406 93.175781 76.191406 C 91.765625 76.191406 90.625 75.050781 90.625 73.644531 Z M 107.710938 58.886719 C 107.710938 57.480469 108.855469 56.339844 110.261719 56.339844 C 111.671875 56.339844 112.8125 57.480469 112.8125 58.886719 C 112.8125 60.296875 111.671875 61.4375 110.261719 61.4375 C 108.855469 61.4375 107.710938 60.296875 107.710938 58.886719 Z M 83.246094 63.390625 C 83.246094 61.984375 84.386719 60.839844 85.796875 60.839844 C 87.203125 60.839844 88.34375 61.984375 88.34375 63.390625 C 88.34375 64.796875 87.203125 65.941406 85.796875 65.941406 C 84.386719 65.941406 83.246094 64.796875 83.246094 63.390625 Z M 56.011719 62.96875 C 56.011719 61.5625 57.15625 60.421875 58.5625 60.421875 C 59.96875 60.421875 61.113281 61.5625 61.113281 62.96875 C 61.113281 64.378906 59.96875 65.519531 58.5625 65.519531 C 57.15625 65.519531 56.011719 64.378906 56.011719 62.96875 Z M 67.460938 66.984375 C 67.460938 65.578125 68.601562 64.4375 70.011719 64.4375 C 71.417969 64.4375 72.558594 65.578125 72.558594 66.984375 C 72.558594 68.394531 71.417969 69.535156 70.011719 69.535156 C 68.601562 69.535156 67.460938 68.394531 67.460938 66.984375 Z M 49.070312 70.621094 C 49.070312 69.210938 50.210938 68.070312 51.617188 68.070312 C 53.027344 68.070312 54.167969 69.210938 54.167969 70.621094 C 54.167969 72.027344 53.027344 73.167969 51.617188 73.167969 C 50.210938 73.167969 49.070312 72.027344 49.070312 70.621094 Z M 38.597656 63.988281 C 38.597656 62.582031 39.738281 61.4375 41.148438 61.4375 C 42.554688 61.4375 43.695312 62.582031 43.695312 63.988281 C 43.695312 65.394531 42.554688 66.539062 41.148438 66.539062 C 39.738281 66.539062 38.597656 65.394531 38.597656 63.988281 Z M 38.597656 63.988281 " fill-opacity="1" fill-rule="nonzero"/></g></svg>