<svg xmlns="http://www.w3.org/2000/svg" xmlns:xlink="http://www.w3.org/1999/xlink" zoomAndPan="magnify" preserveAspectRatio="xMidYMid meet" version="1.0" viewBox="0.25 37.51 149.5 74.97"><defs><clipPath id="939f9ca606"><path d="M 0 37.5 L 150 37.5 L 150 112.5 L 0 112.5 Z M 0 37.5 " clip-rule="nonzero"/></clipPath></defs><g clip-path="url(#939f9ca606)"><path fill="#e08538" d="M 148.753906 50.125 C 149.910156 52.339844 150.0625 55.175781 149.203125 58.117188 C 148.78125 59.542969 148.226562 60.664062 147.496094 61.53125 C 146.726562 62.449219 145.628906 63.160156 144.542969 63.46875 C 144.601562 64.894531 143.90625 66.398438 142.6875 67.382812 C 141.195312 68.582031 139.359375 68.84375 138.070312 68.847656 C 136.820312 68.855469 135.410156 68.695312 133.863281 68.371094 C 132.964844 69.210938 131.722656 69.667969 130.484375 69.667969 C 129.707031 69.667969 128.929688 69.484375 128.246094 69.109375 C 127.941406 68.941406 127.660156 68.75 127.382812 68.554688 C 126.929688 68.234375 126.488281 67.921875 126.039062 67.859375 C 125.632812 67.800781 125.164062 67.929688 124.699219 68.226562 C 124.222656 68.539062 123.804688 68.984375 123.398438 69.421875 C 123.382812 69.4375 123.371094 69.4375 123.363281 69.449219 C 123.472656 69.746094 123.523438 70.085938 123.492188 70.476562 C 123.261719 73.332031 123.203125 75.546875 123.320312 77.640625 C 123.464844 80.203125 123.796875 82.847656 124.351562 85.71875 C 125.378906 91.066406 127.007812 96.378906 128.582031 101.523438 C 129.054688 103.046875 129.507812 104.539062 129.957031 106.019531 C 130.382812 107.414062 130.8125 108.8125 131.253906 110.25 C 131.332031 110.523438 131.28125 110.820312 131.117188 111.050781 C 130.941406 111.285156 130.675781 111.421875 130.386719 111.421875 L 108.335938 111.390625 C 108.351562 111.457031 108.371094 111.53125 108.371094 111.609375 C 108.359375 112.101562 107.960938 112.484375 107.46875 112.484375 C 107.445312 112.484375 107.425781 112.484375 107.402344 112.484375 C 106.953125 112.476562 106.507812 112.457031 106.058594 112.441406 C 105.21875 112.410156 104.378906 112.382812 103.542969 112.382812 L 98.167969 112.363281 C 89.988281 112.332031 81.800781 112.304688 73.617188 112.304688 C 68.34375 112.304688 63.210938 112.289062 58.117188 112.277344 C 48.8125 112.253906 40.023438 112.238281 30.59375 112.285156 C 20.824219 112.335938 10.917969 112.320312 1.148438 112.246094 C 0.886719 112.238281 0.644531 112.132812 0.476562 111.9375 C 0.304688 111.738281 0.222656 111.488281 0.257812 111.226562 L 0.679688 107.847656 C 0.699219 107.667969 0.78125 107.523438 0.886719 107.394531 C 0.894531 106.910156 1.292969 106.519531 1.785156 106.519531 L 4.429688 106.519531 C 4.402344 105.90625 4.410156 105.273438 4.445312 104.652344 C 4.476562 104.183594 4.867188 103.8125 5.335938 103.804688 C 5.769531 103.800781 6.210938 103.742188 6.679688 103.683594 C 6.925781 103.65625 7.171875 103.625 7.425781 103.597656 C 7.449219 103.496094 7.457031 103.386719 7.460938 103.285156 C 7.484375 102.851562 7.808594 102.488281 8.234375 102.421875 C 8.578125 102.378906 8.917969 102.335938 9.261719 102.292969 C 9.285156 100.421875 9.609375 85.886719 9.949219 70.515625 C 10.289062 55.1875 10.644531 39.332031 10.644531 38.597656 C 10.644531 38.199219 10.96875 37.875 11.367188 37.875 C 11.753906 37.875 12.175781 37.792969 12.609375 37.707031 C 13.101562 37.613281 13.605469 37.511719 14.136719 37.511719 L 15.285156 37.511719 C 15.683594 37.511719 16 37.828125 16.007812 38.226562 C 16.007812 38.753906 17.484375 96.039062 17.832031 101.699219 C 18.871094 101.679688 19.941406 101.671875 21.0625 101.671875 L 20.960938 87.621094 C 20.957031 87.1875 20.925781 86.738281 20.890625 86.289062 C 20.847656 85.703125 20.804688 85.097656 20.816406 84.496094 C 20.871094 82.625 22.691406 82.578125 23.472656 82.558594 L 23.542969 82.558594 C 25.988281 82.5 28.519531 82.476562 31.058594 82.484375 C 35.707031 82.507812 40.414062 82.652344 45.066406 82.910156 C 45.117188 82.875 45.167969 82.839844 45.21875 82.804688 C 45.246094 82.78125 45.28125 82.757812 45.304688 82.746094 C 45.644531 82.171875 46.367188 82.144531 48.929688 82.253906 C 49.082031 82.261719 49.195312 82.269531 49.246094 82.269531 C 49.730469 82.277344 50.207031 82.304688 50.683594 82.324219 C 51.183594 82.355469 51.683594 82.382812 52.1875 82.390625 C 54.503906 82.398438 56.839844 82.542969 59.128906 82.804688 C 60.070312 82.910156 60.191406 82.925781 60.445312 91.113281 L 60.460938 91.5625 C 60.496094 92.4375 60.511719 93.3125 60.511719 94.1875 C 62.175781 94.097656 63.851562 94.128906 65.507812 94.28125 C 65.984375 94.316406 66.347656 94.726562 66.332031 95.207031 C 66.3125 95.886719 66.3125 96.617188 66.3125 97.34375 C 66.3125 97.777344 66.320312 98.21875 66.3125 98.65625 C 67.296875 98.710938 68.214844 98.808594 69.117188 98.894531 C 70.5 99.039062 71.824219 99.167969 73.285156 99.160156 C 76.582031 90.375 77.59375 80.597656 76.105469 71.355469 C 76.058594 71.058594 76.011719 70.734375 75.964844 70.402344 C 75.800781 69.230469 75.605469 67.898438 75.214844 66.988281 C 75.121094 66.757812 75.121094 66.503906 75.214844 66.277344 C 75.316406 66.046875 75.496094 65.875 75.726562 65.785156 C 76.046875 65.664062 76.378906 65.554688 76.703125 65.4375 C 76.648438 65.25 76.667969 65.050781 76.761719 64.882812 C 76.839844 64.144531 77.1875 63.429688 77.722656 62.902344 C 77.371094 62.375 77.195312 61.730469 77.246094 61.085938 C 77.324219 60.03125 77.941406 59.546875 78.382812 59.191406 C 78.605469 59.011719 78.800781 58.859375 78.929688 58.648438 C 78.960938 58.59375 78.996094 58.398438 79.023438 58.265625 C 79.066406 58.011719 79.125 57.730469 79.261719 57.464844 C 79.542969 56.914062 79.945312 56.4375 80.421875 56.066406 C 81.058594 55.597656 81.832031 55.316406 82.605469 55.273438 C 82.808594 55.257812 83.03125 55.300781 83.292969 55.34375 C 83.398438 55.367188 83.566406 55.394531 83.695312 55.410156 C 83.738281 55.265625 83.789062 55.078125 83.824219 54.9375 C 83.925781 54.542969 84.015625 54.195312 84.152344 53.960938 C 84.539062 53.296875 85.070312 52.710938 85.675781 52.269531 C 86.660156 51.570312 87.90625 51.207031 89.113281 51.257812 C 89.003906 50.925781 88.84375 50.433594 89.03125 49.875 C 89.964844 47.105469 92.265625 44.835938 95.042969 43.9375 C 96.472656 43.476562 97.789062 43.476562 98.859375 43.929688 C 99.046875 44.011719 99.222656 44.105469 99.402344 44.199219 C 99.65625 44.328125 99.894531 44.460938 100.109375 44.511719 C 100.660156 44.625 101.246094 44.335938 101.933594 43.996094 C 102.6875 43.628906 103.539062 43.207031 104.5 43.324219 C 105.472656 43.433594 106.214844 44.039062 106.816406 44.617188 L 107.03125 44.835938 C 107.464844 45.253906 107.863281 45.652344 108.332031 45.847656 C 108.523438 45.929688 108.753906 45.964844 108.964844 45.949219 C 108.738281 45.457031 108.722656 44.863281 108.871094 44.367188 C 109.007812 43.925781 109.238281 43.542969 109.441406 43.207031 C 109.542969 43.035156 109.644531 42.867188 109.730469 42.6875 C 109.847656 42.464844 109.933594 42.203125 110.035156 41.933594 C 110.148438 41.59375 110.273438 41.242188 110.460938 40.894531 C 111.117188 39.664062 112.457031 38.753906 114.132812 38.382812 C 117.445312 37.660156 121.105469 39.28125 122.847656 42.179688 C 125.078125 42.238281 127.324219 43.375 128.902344 45.050781 C 130.925781 43.777344 133.339844 43.183594 135.730469 43.394531 C 137.875 43.582031 140.105469 44.632812 142.042969 46.367188 C 144.632812 46.003906 147.410156 47.539062 148.753906 50.125 Z M 147.8125 57.710938 C 148.570312 55.132812 148.449219 52.671875 147.472656 50.800781 C 146.492188 48.910156 144.515625 47.710938 142.648438 47.777344 C 142.9375 48.09375 143.171875 48.441406 143.328125 48.78125 C 143.570312 49.296875 143.675781 49.789062 143.714844 50.199219 C 143.785156 51.023438 143.621094 51.507812 143.460938 51.515625 C 143.289062 51.53125 143.136719 51.058594 142.875 50.394531 C 142.605469 49.730469 142.1875 48.867188 141.421875 48.28125 C 140.65625 47.675781 139.785156 47.601562 139.15625 47.753906 C 138.527344 47.898438 138.175781 48.210938 138.027344 48.109375 C 137.890625 48.042969 138.019531 47.429688 138.816406 46.957031 C 139.136719 46.777344 139.554688 46.640625 140.03125 46.617188 C 138.605469 45.597656 137.050781 44.96875 135.605469 44.839844 C 133.582031 44.667969 131.542969 45.152344 129.8125 46.199219 C 130.246094 46.855469 130.59375 47.566406 130.804688 48.304688 C 131.511719 48.519531 132.148438 49.023438 132.582031 49.726562 C 132.972656 50.371094 133.195312 51.167969 133.261719 52.152344 C 133.515625 56.09375 131.152344 60.113281 127.226562 62.398438 C 124.152344 64.183594 120.3125 64.957031 115.496094 64.777344 L 115.351562 64.769531 C 114.621094 64.742188 113.925781 64.714844 113.339844 64.929688 C 113.058594 65.03125 112.773438 65.199219 112.484375 65.371094 C 112.304688 65.480469 112.117188 65.585938 111.9375 65.6875 C 110.105469 66.644531 108.105469 66.542969 106.746094 66.28125 C 105.753906 66.09375 104.8125 65.78125 103.894531 65.429688 C 103.785156 65.632812 103.707031 65.882812 103.691406 66.128906 C 103.671875 66.433594 103.742188 66.851562 103.808594 67.257812 C 103.863281 67.582031 103.921875 67.917969 103.945312 68.242188 C 104.140625 68.3125 104.292969 68.472656 104.363281 68.675781 C 104.378906 68.667969 104.386719 68.667969 104.394531 68.660156 L 104.53125 68.625 C 105.035156 68.480469 105.550781 68.457031 105.996094 68.441406 C 106.128906 68.4375 106.257812 68.4375 106.382812 68.429688 C 107.632812 68.347656 108.882812 68.285156 110.136719 68.238281 C 112.628906 68.148438 115.160156 68.109375 117.65625 68.132812 L 118.277344 68.140625 C 119.296875 68.148438 120.355469 68.152344 121.394531 68.21875 C 121.765625 68.238281 122.082031 68.304688 122.355469 68.414062 C 122.796875 67.945312 123.296875 67.417969 123.910156 67.019531 C 124.15625 66.851562 124.410156 66.738281 124.671875 66.636719 C 124.113281 66.402344 123.671875 66.09375 123.457031 65.796875 C 123.230469 65.492188 123.214844 65.261719 123.289062 65.234375 C 123.367188 65.179688 123.503906 65.304688 123.773438 65.4375 C 124.035156 65.582031 124.429688 65.726562 124.96875 65.832031 C 126.023438 66.066406 127.570312 66.085938 129.003906 65.339844 C 129.726562 64.972656 130.324219 64.464844 130.78125 63.9375 L 130.859375 63.84375 C 131.050781 63.628906 131.382812 63.597656 131.605469 63.792969 C 131.734375 63.910156 131.800781 64.074219 131.785156 64.234375 C 131.765625 64.480469 132.054688 64.792969 132.378906 64.90625 C 132.683594 65.03125 133.074219 65.015625 133.378906 64.972656 C 134.015625 64.863281 134.441406 64.746094 134.492188 64.878906 C 134.535156 64.980469 134.261719 65.292969 133.582031 65.625 C 133.234375 65.769531 132.757812 65.933594 132.132812 65.8125 C 131.839844 65.746094 131.527344 65.617188 131.246094 65.386719 C 131.203125 65.351562 131.164062 65.304688 131.121094 65.261719 C 130.6875 65.710938 130.167969 66.117188 129.558594 66.425781 C 128.953125 66.746094 128.308594 66.925781 127.6875 67.011719 C 127.875 67.136719 128.046875 67.253906 128.214844 67.375 C 128.46875 67.546875 128.699219 67.714844 128.9375 67.84375 C 130.269531 68.574219 132.082031 68.25 133.082031 67.105469 C 133.253906 66.902344 133.53125 66.816406 133.78125 66.875 C 135.335938 67.222656 136.761719 67.402344 138.015625 67.402344 C 138.035156 67.402344 138.050781 67.402344 138.070312 67.402344 C 139.121094 67.394531 140.617188 67.195312 141.773438 66.261719 C 142.71875 65.496094 143.21875 64.320312 143.066406 63.273438 C 142.851562 63.476562 142.605469 63.664062 142.316406 63.816406 C 141.109375 64.425781 139.929688 64.292969 139.199219 64.132812 C 138.445312 63.960938 138.027344 63.742188 138.046875 63.578125 C 138.0625 63.402344 138.546875 63.332031 139.261719 63.273438 C 139.972656 63.214844 140.933594 63.15625 141.75 62.730469 C 142.554688 62.3125 143.089844 61.53125 143.480469 60.953125 C 143.871094 60.359375 144.136719 59.960938 144.304688 60.019531 C 144.457031 60.074219 144.476562 60.5625 144.261719 61.3125 C 144.1875 61.558594 144.078125 61.832031 143.929688 62.128906 C 144.78125 61.949219 145.757812 61.347656 146.378906 60.605469 C 146.980469 59.890625 147.449219 58.941406 147.8125 57.710938 Z M 126.5 61.148438 C 129.898438 59.167969 132.035156 55.585938 131.816406 52.246094 C 131.765625 51.5 131.613281 50.921875 131.347656 50.480469 C 131.085938 50.054688 130.695312 49.765625 130.296875 49.679688 C 130.636719 50.378906 130.585938 51.042969 130.515625 51.464844 C 130.414062 51.949219 130.246094 52.21875 130.082031 52.21875 C 129.914062 52.21875 129.769531 51.929688 129.652344 51.496094 C 129.53125 51.074219 129.410156 50.511719 129.140625 50.097656 C 128.867188 49.664062 128.519531 49.433594 128.230469 49.339844 C 127.949219 49.246094 127.730469 49.3125 127.570312 49.246094 C 127.507812 49.203125 127.464844 49.085938 127.550781 48.914062 C 127.636719 48.742188 127.863281 48.5625 128.171875 48.480469 C 128.535156 48.378906 128.996094 48.464844 129.410156 48.707031 C 128.699219 46.1875 126.070312 44.035156 123.394531 43.6875 C 123.726562 44.027344 123.972656 44.375 124.125 44.65625 C 124.375 45.160156 124.441406 45.515625 124.3125 45.617188 C 124.175781 45.71875 123.855469 45.539062 123.449219 45.199219 C 123.039062 44.871094 122.539062 44.410156 121.945312 44.097656 C 121.363281 43.78125 120.8125 43.730469 120.378906 43.78125 C 119.945312 43.832031 119.65625 43.976562 119.515625 43.867188 C 119.386719 43.78125 119.488281 43.332031 120.058594 42.980469 C 120.339844 42.8125 120.730469 42.683594 121.171875 42.683594 C 121.265625 42.675781 121.359375 42.683594 121.453125 42.699219 C 119.980469 40.460938 117.078125 39.234375 114.445312 39.8125 C 113.179688 40.085938 112.195312 40.738281 111.734375 41.589844 C 111.605469 41.835938 111.503906 42.128906 111.394531 42.429688 C 111.292969 42.726562 111.175781 43.03125 111.03125 43.339844 C 110.925781 43.550781 110.800781 43.761719 110.679688 43.960938 C 110.503906 44.25 110.339844 44.519531 110.257812 44.785156 C 110.171875 45.082031 110.242188 45.410156 110.367188 45.46875 C 110.511719 45.53125 110.621094 45.65625 110.691406 45.792969 C 110.828125 45.691406 110.96875 45.582031 111.125 45.496094 C 112.132812 44.9375 113.1875 44.832031 113.902344 44.925781 C 114.625 45.015625 115.015625 45.277344 114.988281 45.4375 C 114.921875 45.769531 113.304688 45.667969 111.71875 46.566406 C 110.121094 47.433594 109.355469 48.859375 109.035156 48.734375 C 108.882812 48.679688 108.867188 48.207031 109.171875 47.542969 C 109.199219 47.492188 109.238281 47.433594 109.265625 47.375 C 108.761719 47.453125 108.214844 47.382812 107.761719 47.1875 C 107.046875 46.882812 106.503906 46.347656 106.019531 45.878906 L 105.808594 45.667969 C 105.382812 45.253906 104.875 44.828125 104.335938 44.761719 C 103.800781 44.707031 103.199219 44.996094 102.570312 45.304688 C 102.300781 45.433594 102.019531 45.574219 101.726562 45.6875 C 102.019531 45.8125 102.300781 45.96875 102.550781 46.160156 C 103.207031 46.671875 103.648438 47.179688 104.113281 47.675781 C 104.460938 48.0625 104.761719 48.472656 105 48.890625 C 105.621094 48.660156 106.179688 48.609375 106.578125 48.632812 C 107.078125 48.660156 107.34375 48.792969 107.335938 48.882812 C 107.335938 49.109375 106.238281 49.117188 105.015625 49.941406 C 104.804688 50.078125 104.523438 50.027344 104.378906 49.816406 L 104.371094 49.800781 L 104.328125 49.738281 C 104.074219 49.332031 103.714844 48.910156 103.273438 48.472656 C 102.816406 48.039062 102.308594 47.507812 101.816406 47.132812 C 100.632812 46.136719 99.097656 46.828125 98.417969 47.582031 C 97.695312 48.355469 97.550781 49.109375 97.371094 49.078125 C 97.289062 49.070312 97.21875 48.875 97.234375 48.515625 C 97.253906 48.152344 97.371094 47.617188 97.738281 47.054688 C 98.058594 46.574219 98.585938 46.070312 99.300781 45.757812 C 99.09375 45.671875 98.902344 45.570312 98.722656 45.484375 C 98.578125 45.402344 98.441406 45.324219 98.289062 45.265625 C 97.355469 44.863281 96.25 45.070312 95.492188 45.316406 C 93.140625 46.078125 91.195312 48 90.40625 50.335938 C 90.371094 50.453125 90.414062 50.597656 90.496094 50.828125 C 90.625 51.21875 90.84375 51.878906 90.328125 52.519531 C 90.160156 52.730469 89.886719 52.832031 89.625 52.773438 C 88.5625 52.570312 87.398438 52.824219 86.523438 53.453125 C 86.074219 53.769531 85.691406 54.199219 85.402344 54.691406 C 85.359375 54.777344 85.28125 55.09375 85.222656 55.304688 C 85.171875 55.515625 85.121094 55.6875 85.070312 55.847656 C 85.714844 55.550781 86.496094 55.457031 87.238281 55.601562 C 87.441406 55.636719 87.644531 55.695312 87.839844 55.753906 C 88.019531 55.808594 88.238281 55.90625 88.34375 55.949219 C 88.398438 55.96875 88.425781 55.976562 88.4375 55.984375 C 88.46875 55.957031 88.488281 55.925781 88.527344 55.875 C 88.960938 55.3125 89.472656 54.90625 89.929688 54.652344 C 90.863281 54.148438 91.542969 54.175781 91.570312 54.328125 C 91.628906 54.496094 91.085938 54.761719 90.429688 55.363281 C 90.101562 55.660156 89.75 56.042969 89.453125 56.519531 C 89.363281 56.644531 89.25 56.902344 88.875 57.078125 C 88.488281 57.246094 88.15625 57.140625 87.957031 57.078125 C 87.738281 57.003906 87.628906 56.960938 87.472656 56.910156 C 87.320312 56.867188 87.167969 56.832031 87.015625 56.800781 C 85.777344 56.542969 84.722656 57.128906 84.390625 57.816406 C 84.019531 58.515625 84.214844 59.101562 84.066406 59.179688 C 83.992188 59.21875 83.832031 59.128906 83.679688 58.847656 C 83.535156 58.566406 83.4375 58.089844 83.582031 57.519531 C 83.632812 57.300781 83.738281 57.085938 83.875 56.867188 C 83.601562 56.875 83.304688 56.824219 83.03125 56.773438 C 82.894531 56.746094 82.761719 56.722656 82.667969 56.71875 C 82.191406 56.746094 81.699219 56.925781 81.296875 57.230469 C 80.984375 57.460938 80.730469 57.773438 80.550781 58.128906 C 80.507812 58.207031 80.46875 58.386719 80.441406 58.539062 C 80.390625 58.816406 80.332031 59.117188 80.167969 59.402344 C 79.90625 59.835938 79.558594 60.109375 79.285156 60.332031 C 78.878906 60.644531 78.710938 60.796875 78.683594 61.207031 C 78.648438 61.671875 78.863281 62.15625 79.226562 62.4375 C 79.421875 62.589844 79.523438 62.828125 79.5 63.074219 C 79.480469 63.3125 79.339844 63.53125 79.125 63.648438 C 78.632812 63.90625 78.292969 64.429688 78.207031 64.976562 C 85.128906 62.996094 92.921875 63.25 100.105469 65.730469 C 100.285156 65.511719 100.589844 65.410156 100.878906 65.503906 C 101.160156 65.597656 101.515625 65.484375 101.695312 65.246094 C 101.867188 65.011719 101.882812 64.636719 101.714844 64.390625 C 101.660156 64.296875 101.628906 64.195312 101.609375 64.09375 C 100.976562 64.074219 100.414062 63.949219 99.988281 63.777344 C 99.191406 63.460938 98.824219 63.0625 98.894531 62.917969 C 99.039062 62.605469 100.863281 63.34375 102.953125 62.722656 C 105.054688 62.136719 106.207031 60.550781 106.496094 60.738281 C 106.632812 60.8125 106.539062 61.347656 106.03125 62.042969 C 105.585938 62.65625 104.757812 63.371094 103.652344 63.777344 C 104.746094 64.234375 105.867188 64.652344 107.007812 64.867188 C 108.144531 65.078125 109.800781 65.171875 111.253906 64.414062 C 111.417969 64.324219 111.578125 64.230469 111.738281 64.132812 C 112.078125 63.929688 112.425781 63.71875 112.835938 63.574219 C 113.695312 63.257812 114.601562 63.292969 115.402344 63.328125 L 115.546875 63.335938 C 120.078125 63.503906 123.667969 62.796875 126.5 61.148438 Z M 129.164062 109.605469 C 128.851562 108.582031 128.542969 107.558594 128.230469 106.546875 C 127.78125 105.066406 127.324219 103.574219 126.855469 102.050781 C 125.265625 96.867188 123.621094 91.5 122.574219 86.0625 C 122.011719 83.113281 121.664062 80.390625 121.519531 77.746094 C 121.425781 76.03125 121.441406 74.253906 121.5625 72.148438 C 117.441406 71.597656 113.21875 71.671875 109.117188 71.757812 C 107.78125 71.785156 106.398438 71.824219 105.066406 72.046875 C 105.347656 73.492188 105.582031 74.984375 105.652344 76.515625 C 105.863281 81.171875 105.066406 85.835938 103.34375 90.023438 C 103.332031 90.070312 103.292969 90.105469 103.265625 90.148438 C 103.433594 90.878906 103.605469 91.609375 103.773438 92.324219 C 104.148438 93.921875 104.539062 95.578125 104.878906 97.222656 C 105.382812 99.609375 105.933594 102.023438 106.511719 104.378906 C 106.542969 104.503906 106.605469 104.808594 106.699219 105.234375 C 107.121094 107.15625 107.460938 108.597656 107.714844 109.582031 Z M 121.691406 70.324219 C 121.707031 70.171875 121.683594 70.101562 121.675781 70.085938 C 121.667969 70.085938 121.570312 70.042969 121.292969 70.019531 C 120.296875 69.964844 119.261719 69.957031 118.261719 69.949219 L 117.632812 69.941406 C 115.167969 69.917969 112.671875 69.957031 110.207031 70.050781 C 108.96875 70.09375 107.726562 70.148438 106.488281 70.230469 C 106.351562 70.238281 106.207031 70.246094 106.0625 70.25 C 105.6875 70.265625 105.328125 70.273438 105.039062 70.359375 L 104.90625 70.394531 C 104.855469 70.410156 104.808594 70.425781 104.753906 70.4375 L 104.777344 70.546875 C 104.804688 70.691406 104.835938 70.835938 104.863281 70.980469 C 106.273438 70.734375 107.707031 70.699219 109.09375 70.667969 C 113.21875 70.582031 117.453125 70.511719 121.632812 71.058594 C 121.65625 70.816406 121.671875 70.578125 121.691406 70.324219 Z M 106.113281 110.632812 C 106.121094 110.632812 106.121094 110.632812 106.121094 110.632812 C 105.832031 109.621094 105.472656 108.050781 104.9375 105.617188 C 104.847656 105.21875 104.785156 104.929688 104.753906 104.8125 C 104.171875 102.425781 103.621094 100.003906 103.113281 97.597656 C 102.765625 95.96875 102.382812 94.328125 102.015625 92.734375 C 101.3125 89.761719 100.597656 86.691406 100.121094 83.585938 C 99.503906 79.542969 99.136719 75.429688 99.042969 71.351562 C 99.019531 70.652344 99.019531 69.933594 99.078125 69.21875 C 92.144531 66.984375 84.558594 66.96875 77.609375 69.199219 C 77.660156 69.523438 77.707031 69.84375 77.753906 70.152344 C 77.796875 70.46875 77.84375 70.78125 77.890625 71.070312 C 79.566406 81.492188 78.179688 92.5625 73.992188 102.246094 C 73.765625 102.761719 73.550781 103.273438 73.339844 103.785156 C 72.351562 106.113281 71.410156 108.34375 70.0625 110.492188 C 71.242188 110.496094 72.429688 110.496094 73.613281 110.496094 C 81.800781 110.496094 89.988281 110.527344 98.175781 110.554688 L 103.546875 110.578125 C 104.410156 110.578125 105.261719 110.605469 106.113281 110.632812 Z M 102.550781 86.847656 C 103.554688 83.582031 104.003906 80.089844 103.84375 76.601562 C 103.757812 74.671875 103.386719 72.84375 103.003906 70.910156 L 102.808594 69.929688 C 102.765625 69.734375 102.816406 69.53125 102.902344 69.351562 C 102.894531 69.34375 102.886719 69.34375 102.882812 69.335938 C 102.644531 69.109375 102.503906 68.800781 102.503906 68.488281 C 102.503906 68.214844 102.449219 67.875 102.382812 67.507812 C 102.332031 67.21875 102.289062 66.921875 102.257812 66.632812 C 102.019531 66.785156 101.753906 66.890625 101.46875 66.9375 C 101.457031 67.042969 101.441406 67.144531 101.390625 67.246094 C 100.828125 68.425781 100.8125 69.835938 100.839844 71.304688 C 100.941406 75.308594 101.296875 79.351562 101.902344 83.316406 C 102.085938 84.492188 102.3125 85.671875 102.550781 86.847656 Z M 99.230469 68.132812 C 99.28125 67.878906 99.332031 67.632812 99.402344 67.386719 C 92.070312 64.878906 84.078125 64.804688 77.195312 67.179688 C 77.28125 67.484375 77.355469 67.800781 77.417969 68.121094 C 84.476562 65.890625 92.171875 65.890625 99.230469 68.132812 Z M 72.335938 101.527344 C 72.417969 101.339844 72.488281 101.152344 72.566406 100.964844 C 71.289062 100.929688 70.085938 100.8125 68.929688 100.695312 C 67.84375 100.589844 66.726562 100.480469 65.53125 100.4375 C 65.515625 100.4375 65.503906 100.445312 65.480469 100.445312 C 65.480469 100.445312 65.480469 100.445312 65.472656 100.445312 C 60.628906 100.394531 55.71875 100.414062 50.867188 100.496094 C 50.605469 103.800781 50.410156 107.140625 50.289062 110.453125 C 52.875 110.460938 55.472656 110.46875 58.117188 110.46875 C 61.359375 110.476562 64.613281 110.484375 67.910156 110.488281 C 67.925781 110.453125 67.945312 110.425781 67.96875 110.386719 C 68.175781 110.085938 68.371094 109.78125 68.566406 109.476562 C 63.195312 109.375 57.765625 109.425781 52.40625 109.636719 C 52.398438 109.636719 52.390625 109.636719 52.382812 109.636719 C 52.277344 109.636719 52.167969 109.59375 52.082031 109.515625 C 52 109.425781 51.949219 109.3125 51.949219 109.195312 L 52.039062 104.667969 C 52.039062 104.4375 52.234375 104.25 52.464844 104.242188 C 59.023438 104.183594 65.308594 104.207031 71.15625 104.292969 C 71.332031 103.890625 71.496094 103.492188 71.671875 103.078125 C 71.886719 102.5625 72.113281 102.050781 72.335938 101.527344 Z M 70.171875 106.476562 C 70.382812 106.042969 70.585938 105.601562 70.78125 105.152344 C 69.480469 105.136719 68.164062 105.117188 66.820312 105.109375 L 66.90625 106.476562 Z M 69.753906 107.34375 L 66.960938 107.34375 L 67.050781 108.585938 C 67.722656 108.59375 68.402344 108.601562 69.074219 108.617188 C 69.3125 108.195312 69.535156 107.769531 69.753906 107.34375 Z M 66.183594 108.574219 L 66.09375 107.34375 L 63.121094 107.34375 L 63.128906 108.566406 C 64.148438 108.566406 65.160156 108.566406 66.183594 108.574219 Z M 66.039062 106.476562 L 65.945312 105.101562 C 65.011719 105.09375 64.0625 105.085938 63.109375 105.085938 L 63.117188 106.476562 Z M 64.503906 97.347656 C 64.503906 96.902344 64.503906 96.453125 64.503906 96.019531 C 63.203125 95.929688 61.878906 95.925781 60.578125 95.996094 C 60.5625 96.589844 60.589844 97.167969 60.613281 97.785156 C 60.628906 98.179688 60.632812 98.585938 60.640625 98.984375 C 61.929688 98.984375 63.214844 98.984375 64.496094 99 C 64.503906 98.464844 64.503906 97.90625 64.503906 97.347656 Z M 62.261719 108.566406 L 62.253906 107.34375 L 59.613281 107.34375 C 59.636719 107.753906 59.644531 108.175781 59.667969 108.585938 C 60.535156 108.574219 61.394531 108.566406 62.261719 108.566406 Z M 62.246094 106.476562 L 62.238281 105.082031 C 61.351562 105.082031 60.441406 105.082031 59.527344 105.082031 C 59.542969 105.542969 59.5625 106.007812 59.585938 106.476562 Z M 58.796875 108.601562 C 58.777344 108.183594 58.769531 107.761719 58.746094 107.34375 L 56.300781 107.34375 L 56.300781 108.644531 C 57.132812 108.625 57.964844 108.617188 58.796875 108.601562 Z M 58.71875 106.476562 C 58.699219 106.007812 58.675781 105.542969 58.660156 105.082031 C 57.878906 105.082031 57.09375 105.089844 56.304688 105.089844 L 56.304688 106.476562 Z M 58.683594 97.261719 C 58.703125 95.417969 58.726562 93.507812 58.65625 91.636719 L 58.640625 91.175781 C 58.617188 90.503906 58.597656 89.902344 58.582031 89.351562 C 57.34375 89.335938 56.035156 89.4375 54.765625 89.546875 C 53.746094 89.636719 52.703125 89.707031 51.699219 89.726562 L 51.632812 99.042969 C 53.976562 99.007812 56.320312 98.984375 58.667969 98.976562 C 58.675781 98.40625 58.675781 97.832031 58.683594 97.261719 Z M 58.542969 88.410156 C 58.53125 88.207031 58.523438 88.015625 58.515625 87.824219 L 51.703125 87.820312 L 51.703125 88.789062 C 52.671875 88.765625 53.691406 88.695312 54.683594 88.605469 C 55.964844 88.496094 57.277344 88.398438 58.542969 88.410156 Z M 51.710938 86.878906 L 58.472656 86.886719 C 58.40625 85.65625 58.347656 84.941406 58.304688 84.535156 C 56.273438 84.324219 54.21875 84.210938 52.179688 84.203125 C 52.027344 84.195312 51.882812 84.1875 51.730469 84.179688 Z M 55.433594 108.675781 L 55.433594 107.34375 L 52.855469 107.34375 L 52.832031 108.746094 C 53.691406 108.71875 54.566406 108.695312 55.433594 108.675781 Z M 55.433594 106.476562 L 55.433594 105.09375 C 54.589844 105.101562 53.75 105.101562 52.898438 105.109375 L 52.867188 106.476562 Z M 50.769531 86.878906 L 50.792969 84.144531 C 50.71875 84.136719 50.65625 84.136719 50.582031 84.136719 C 50.125 84.109375 49.679688 84.085938 49.222656 84.078125 C 49.160156 84.078125 49.027344 84.070312 48.847656 84.066406 C 47.5 84.007812 46.871094 84.015625 46.582031 84.035156 C 46.53125 84.078125 46.488281 84.109375 46.445312 84.144531 C 46.445312 84.164062 46.460938 84.1875 46.460938 84.210938 L 46.503906 86.871094 Z M 50.761719 88.808594 L 50.761719 87.820312 L 46.519531 87.8125 L 46.535156 88.808594 C 47.640625 88.832031 48.824219 88.824219 49.984375 88.816406 Z M 50.691406 99.046875 L 50.753906 89.75 L 49.988281 89.753906 C 48.832031 89.761719 47.660156 89.769531 46.554688 89.75 L 46.757812 102.105469 C 47.011719 102.105469 47.265625 102.113281 47.511719 102.113281 C 47.511719 101.875 47.523438 101.644531 47.539062 101.429688 L 47.546875 101.304688 C 47.589844 100.53125 47.929688 99.867188 48.488281 99.480469 C 49.074219 99.078125 49.753906 99.0625 50.257812 99.054688 C 50.402344 99.054688 50.546875 99.054688 50.691406 99.046875 Z M 49.417969 110.453125 C 49.542969 107.148438 49.738281 103.808594 49.996094 100.511719 C 49.707031 100.523438 49.460938 100.566406 49.3125 100.675781 C 49.128906 100.800781 49.007812 101.074219 48.984375 101.394531 L 48.976562 101.523438 C 48.957031 101.921875 48.925781 102.339844 49.007812 102.664062 C 49.0625 102.882812 49.015625 103.113281 48.878906 103.285156 C 48.738281 103.460938 48.53125 103.5625 48.304688 103.5625 C 47.386719 103.5625 46.4375 103.546875 45.484375 103.535156 C 44.539062 103.519531 43.589844 103.503906 42.679688 103.503906 C 42.304688 103.503906 41.984375 103.207031 41.960938 102.832031 C 41.910156 102.183594 41.871094 101.523438 41.816406 100.871094 C 41.789062 100.445312 41.761719 100.011719 41.726562 99.585938 C 41.355469 99.59375 40.957031 99.59375 40.582031 99.59375 L 40.582031 103.113281 C 40.582031 103.324219 40.445312 103.511719 40.234375 103.5625 C 40.199219 103.578125 40.117188 103.628906 40.054688 103.664062 C 40.03125 103.671875 40.011719 103.6875 39.988281 103.699219 L 39.933594 110.457031 C 43.105469 110.445312 46.25 110.445312 49.417969 110.453125 Z M 45.3125 102.085938 L 45.101562 89.726562 C 43.894531 89.726562 42.644531 89.808594 41.421875 89.894531 C 40.261719 89.972656 39.070312 90.054688 37.90625 90.0625 C 37.898438 92.757812 37.941406 95.457031 38.058594 98.140625 L 40.378906 98.140625 C 41.042969 98.148438 41.78125 98.148438 42.382812 98.132812 C 42.765625 98.109375 43.097656 98.421875 43.121094 98.804688 C 43.171875 99.453125 43.214844 100.113281 43.265625 100.765625 C 43.292969 101.199219 43.320312 101.632812 43.359375 102.066406 C 43.996094 102.066406 44.652344 102.078125 45.3125 102.085938 Z M 45.085938 88.789062 L 45.070312 87.882812 L 37.917969 87.882812 C 37.917969 88.296875 37.917969 88.699219 37.914062 89.113281 C 39.042969 89.097656 40.210938 89.035156 41.355469 88.953125 C 42.589844 88.867188 43.851562 88.789062 45.085938 88.789062 Z M 45.058594 86.941406 L 45.023438 84.730469 C 42.695312 84.601562 40.359375 84.492188 38.015625 84.417969 C 37.984375 85.257812 37.957031 86.101562 37.941406 86.941406 Z M 39.640625 102.808594 L 39.640625 99.585938 L 28.148438 99.585938 C 27.917969 99.585938 27.628906 99.585938 27.503906 99.605469 C 27.484375 99.664062 27.453125 99.800781 27.433594 100.074219 C 27.414062 100.40625 27.164062 100.675781 26.839844 100.742188 C 25.921875 100.90625 24.960938 100.945312 24.027344 100.980469 C 23.757812 100.988281 23.5 101 23.238281 101.015625 L 23.121094 110.503906 C 25.617188 110.496094 28.105469 110.488281 30.585938 110.476562 C 32.410156 110.46875 34.195312 110.460938 35.980469 110.460938 C 35.957031 109.363281 36.023438 108.253906 36.195312 107.171875 C 36.234375 106.945312 36.421875 106.78125 36.652344 106.773438 C 36.804688 106.773438 36.957031 106.757812 37.109375 106.746094 C 37.277344 106.722656 37.449219 106.707031 37.628906 106.707031 C 37.753906 106.707031 37.875 106.75 37.96875 106.835938 C 38.058594 106.925781 38.105469 107.046875 38.105469 107.175781 C 38.105469 107.859375 38.136719 108.558594 38.171875 109.253906 C 38.1875 109.652344 38.199219 110.054688 38.214844 110.453125 C 38.46875 110.453125 38.726562 110.453125 38.988281 110.453125 L 39.046875 103.460938 C 39.046875 103.253906 39.191406 103.003906 39.394531 102.949219 C 39.429688 102.933594 39.507812 102.890625 39.574219 102.855469 C 39.597656 102.839844 39.621094 102.824219 39.640625 102.808594 Z M 37.277344 110.453125 C 37.261719 110.070312 37.25 109.679688 37.234375 109.289062 C 37.203125 108.753906 37.183594 108.210938 37.175781 107.675781 C 37.140625 107.683594 37.105469 107.683594 37.074219 107.691406 C 36.953125 108.601562 36.910156 109.527344 36.929688 110.453125 C 37.046875 110.453125 37.160156 110.453125 37.277344 110.453125 Z M 32.183594 98.136719 L 37.117188 98.136719 C 37 95.460938 36.957031 92.757812 36.964844 90.058594 C 32.265625 90.007812 27.5 90.003906 22.785156 90.03125 L 22.855469 99.585938 C 23.226562 99.5625 23.601562 99.546875 23.976562 99.535156 C 24.679688 99.503906 25.394531 99.480469 26.074219 99.394531 C 26.363281 98.121094 27.28125 98.128906 28.164062 98.136719 Z M 37 86.941406 C 37.015625 86.097656 37.046875 85.242188 37.074219 84.398438 C 35.058594 84.347656 33.046875 84.308594 31.042969 84.296875 C 28.527344 84.289062 26.015625 84.3125 23.585938 84.367188 L 23.507812 84.367188 C 23.253906 84.375 22.777344 84.390625 22.625 84.460938 C 22.632812 84.476562 22.625 84.503906 22.625 84.550781 C 22.609375 85.054688 22.644531 85.589844 22.6875 86.15625 C 22.710938 86.414062 22.734375 86.675781 22.746094 86.945312 L 37 86.945312 Z M 36.972656 89.121094 C 36.980469 88.707031 36.980469 88.296875 36.988281 87.882812 L 22.769531 87.882812 L 22.777344 89.089844 C 27.5 89.0625 32.265625 89.070312 36.972656 89.121094 Z M 22.257812 110.503906 L 22.34375 103.410156 C 22.226562 103.460938 22.097656 103.488281 21.960938 103.488281 C 17.027344 103.433594 12.957031 103.632812 9.21875 104.121094 L 9.269531 110.484375 C 13.59375 110.503906 17.929688 110.503906 22.257812 110.503906 Z M 16.390625 101.746094 C 16.175781 98.058594 15.640625 79.242188 15.207031 63.042969 C 14.027344 62.726562 12.78125 62.585938 11.566406 62.667969 C 11.515625 65.226562 11.453125 67.878906 11.394531 70.554688 C 11.078125 84.867188 10.75 99.628906 10.707031 102.128906 C 12.5 101.941406 14.378906 101.820312 16.390625 101.746094 Z M 15.175781 62.058594 C 15.15625 61.191406 15.132812 60.324219 15.113281 59.46875 C 13.976562 59.1875 12.796875 59.121094 11.648438 59.28125 C 11.628906 60.085938 11.613281 60.902344 11.589844 61.726562 C 12.789062 61.660156 14.011719 61.777344 15.175781 62.058594 Z M 15.082031 58.492188 C 15.066406 57.828125 15.046875 57.164062 15.03125 56.503906 C 13.933594 56.265625 12.78125 56.289062 11.703125 56.59375 C 11.691406 57.164062 11.675781 57.742188 11.667969 58.335938 C 12.804688 58.195312 13.960938 58.25 15.082031 58.492188 Z M 15.003906 55.527344 C 14.984375 54.726562 14.960938 53.9375 14.945312 53.164062 C 13.890625 52.976562 12.8125 53.011719 11.78125 53.289062 C 11.765625 54.039062 11.742188 54.8125 11.726562 55.601562 C 12.796875 55.347656 13.925781 55.324219 15.003906 55.527344 Z M 14.917969 52.210938 C 14.894531 51.449219 14.878906 50.710938 14.859375 50.003906 C 13.859375 49.882812 12.855469 49.84375 11.851562 49.894531 C 11.835938 50.675781 11.820312 51.488281 11.800781 52.320312 C 12.824219 52.085938 13.882812 52.042969 14.917969 52.210938 Z M 14.835938 49.050781 C 14.816406 48.304688 14.792969 47.585938 14.78125 46.902344 C 13.839844 46.714844 12.871094 46.691406 11.921875 46.84375 C 11.90625 47.515625 11.886719 48.21875 11.871094 48.957031 C 12.863281 48.910156 13.855469 48.941406 14.835938 49.050781 Z M 14.757812 45.945312 C 14.726562 45.078125 14.714844 44.261719 14.691406 43.515625 C 13.804688 43.351562 12.882812 43.335938 11.996094 43.472656 C 11.972656 44.203125 11.957031 45.015625 11.9375 45.882812 C 12.878906 45.75 13.824219 45.78125 14.757812 45.945312 Z M 14.671875 42.554688 C 14.628906 40.917969 14.589844 39.683594 14.578125 38.960938 L 14.136719 38.960938 C 13.746094 38.960938 13.335938 39.039062 12.894531 39.128906 C 12.625 39.179688 12.359375 39.234375 12.082031 39.273438 C 12.070312 39.929688 12.046875 41.050781 12.011719 42.519531 C 12.890625 42.402344 13.789062 42.417969 14.671875 42.554688 Z M 8.402344 110.480469 L 8.363281 105.332031 C 8.320312 105.339844 8.285156 105.359375 8.242188 105.359375 C 7.816406 105.367188 7.371094 105.417969 6.902344 105.476562 C 6.730469 105.5 6.554688 105.519531 6.382812 105.542969 L 6.367188 110.464844 C 7.046875 110.476562 7.71875 110.476562 8.402344 110.480469 Z M 5.5 110.460938 L 5.507812 108.296875 C 5.472656 108.304688 5.4375 108.328125 5.398438 108.328125 L 2.433594 108.328125 L 2.175781 110.445312 C 3.28125 110.453125 4.394531 110.460938 5.5 110.460938 Z M 5.5 110.460938 " fill-opacity="1" fill-rule="nonzero"/></g></svg>
