<svg xmlns="http://www.w3.org/2000/svg" xmlns:xlink="http://www.w3.org/1999/xlink" width="200" zoomAndPan="magnify" viewBox="0 0 150 149.999998" height="200" preserveAspectRatio="xMidYMid meet" version="1.0"><defs><clipPath id="0b323dfea9"><path d="M 0 2.8125 L 150 2.8125 L 150 147.5625 L 0 147.5625 Z M 0 2.8125 " clip-rule="nonzero"/></clipPath></defs><g clip-path="url(#0b323dfea9)"><path fill="#e08538" d="M 7.574219 39.203125 L 1.152344 35.492188 C 0.0664062 34.863281 -0.304688 33.472656 0.320312 32.390625 C 0.949219 31.304688 2.335938 30.921875 3.425781 31.550781 L 9.847656 35.261719 C 11.871094 36.433594 10.996094 39.507812 8.707031 39.507812 C 8.324219 39.507812 7.933594 39.394531 7.574219 39.203125 Z M 14.460938 22.242188 C 13.832031 21.160156 14.207031 19.769531 15.292969 19.140625 C 16.382812 18.511719 17.769531 18.875 18.398438 19.960938 L 22.03125 26.261719 C 22.90625 27.78125 21.800781 29.667969 20.0625 29.667969 C 19.277344 29.667969 18.511719 29.269531 18.09375 28.527344 Z M 31.980469 20.96875 L 31.980469 13.46875 C 31.980469 12.210938 33 11.183594 34.253906 11.183594 C 35.511719 11.183594 36.527344 12.210938 36.527344 13.46875 L 36.527344 20.96875 C 36.527344 22.226562 35.511719 23.234375 34.253906 23.234375 C 33 23.234375 31.980469 22.226562 31.980469 20.96875 Z M 130.402344 78.605469 L 128.386719 76.589844 L 142.511719 62.445312 L 144.53125 64.464844 Z M 117.132812 62.503906 L 127.625 70.917969 L 137.25 61.285156 L 128.445312 52.492188 C 128.117188 52.167969 127.898438 51.75 127.816406 51.292969 C 126.769531 45.523438 125.117188 39.699219 122.910156 33.929688 C 122.109375 31.835938 120.960938 30.277344 119.1875 28.90625 C 108.84375 20.890625 97.753906 13.847656 86.222656 7.910156 C 83.691406 6.628906 80.535156 8.042969 80.007812 11.070312 C 90.308594 14.019531 99.273438 20.855469 104.832031 30.332031 C 107.195312 31.417969 109.605469 32.675781 111.992188 34.082031 C 113.078125 34.710938 113.441406 36.101562 112.804688 37.1875 C 112.15625 38.289062 110.742188 38.617188 109.695312 38.003906 C 106.394531 36.070312 103.199219 34.460938 99.785156 33.09375 C 97.988281 32.371094 96.308594 34.644531 97.511719 36.175781 C 99.941406 39.261719 103.355469 42.402344 108.253906 46.113281 C 108.917969 46.609375 109.253906 47.425781 109.132812 48.265625 C 108.527344 52.355469 108.929688 55.441406 110.363281 57.6875 C 111.570312 59.570312 113.585938 61.039062 116.519531 62.160156 C 116.742188 62.238281 116.945312 62.351562 117.132812 62.503906 Z M 95.027344 56.621094 C 95.078125 51.421875 90.902344 47.066406 85.554688 47.066406 C 80.207031 47.066406 76.042969 51.410156 76.082031 56.621094 L 65.992188 56.621094 L 65.992188 43.867188 C 65.992188 42.300781 64.441406 41.21875 62.972656 41.714844 C 59.675781 42.835938 56.421875 40.382812 56.421875 37.070312 C 56.421875 33.679688 59.777344 31.285156 62.972656 32.40625 C 64.460938 32.929688 65.992188 31.824219 65.992188 30.257812 L 65.992188 14.039062 C 66.789062 14 67.585938 13.960938 68.371094 13.960938 C 80.066406 13.960938 91.019531 19.425781 98.105469 28.488281 C 93.382812 29.21875 90.789062 34.964844 93.941406 38.976562 C 96.4375 42.152344 99.796875 45.332031 104.46875 48.929688 C 104.164062 51.863281 104.324219 54.414062 104.964844 56.621094 Z M 149.355469 62.863281 L 144.125 57.628906 C 143.234375 56.75 141.820312 56.738281 140.910156 57.628906 L 140.460938 58.066406 L 132.160156 49.769531 C 131.058594 43.960938 129.378906 38.101562 127.15625 32.292969 C 126.058594 29.421875 124.40625 27.210938 121.972656 25.328125 C 111.410156 17.140625 100.082031 9.929688 88.300781 3.875 C 83.078125 1.183594 76.71875 4.21875 75.574219 10.042969 C 71.398438 9.332031 67.679688 9.226562 63.457031 9.71875 C 62.3125 9.851562 61.449219 10.820312 61.449219 11.964844 L 61.449219 27.59375 C 56.125 27.59375 51.878906 31.757812 51.878906 37.070312 C 51.878906 42.40625 56.226562 46.582031 61.449219 46.53125 L 61.449219 58.90625 C 61.449219 60.160156 62.464844 61.171875 63.722656 61.171875 L 78.753906 61.171875 C 80.3125 61.171875 81.410156 59.628906 80.898438 58.144531 C 79.792969 54.945312 82.167969 51.597656 85.554688 51.597656 C 88.933594 51.597656 91.324219 54.933594 90.210938 58.144531 C 89.699219 59.621094 90.792969 61.171875 92.359375 61.171875 L 107.277344 61.171875 C 108.964844 63.320312 111.363281 64.996094 114.5625 66.273438 L 124.390625 74.152344 C 123.625 74.910156 122.898438 75.441406 122.898438 76.589844 C 122.898438 77.179688 123.136719 77.769531 123.566406 78.1875 L 128.796875 83.421875 C 129.6875 84.3125 131.117188 84.308594 132.007812 83.421875 L 149.355469 66.082031 C 150.242188 65.1875 150.242188 63.757812 149.355469 62.863281 Z M 41.679688 96.9375 L 39.289062 96.9375 C 37.273438 96.824219 35.167969 96.136719 35.210938 94.617188 C 35.277344 92.230469 39.039062 91.476562 40.410156 93.035156 C 41.203125 93.933594 41.488281 95.289062 41.679688 96.9375 Z M 56.191406 96.9375 C 56.324219 95.324219 56.730469 93.859375 57.457031 93.035156 C 58.828125 91.480469 62.585938 92.226562 62.65625 94.617188 C 62.699219 96.140625 60.589844 96.824219 58.582031 96.9375 Z M 73.296875 101.03125 C 79.238281 95.984375 83.480469 89.230469 85.425781 81.765625 L 72.917969 81.765625 C 71.359375 81.765625 70.257812 80.226562 70.773438 78.742188 C 71.886719 75.527344 69.492188 72.191406 66.117188 72.191406 C 62.738281 72.191406 60.347656 75.53125 61.460938 78.742188 C 61.96875 80.21875 60.882812 81.765625 59.3125 81.765625 L 44.28125 81.765625 C 43.027344 81.765625 42.007812 80.738281 42.007812 79.5 L 42.007812 67.128906 C 36.8125 67.179688 32.4375 63.023438 32.4375 57.648438 C 32.4375 52.324219 36.777344 48.140625 42.007812 48.1875 L 42.007812 35.207031 C 24.292969 38.480469 11.238281 53.976562 11.238281 72.269531 C 11.238281 83.367188 16.097656 93.835938 24.570312 101.03125 C 29.546875 105.238281 32.636719 110.398438 34.019531 116.773438 L 35.445312 123.359375 L 41.574219 123.359375 L 41.691406 107.3125 L 41.804688 101.488281 L 39.089844 101.488281 C 32.738281 101.125 30.582031 97.492188 30.667969 94.484375 C 30.851562 87.9375 39.75 85.414062 43.824219 90.046875 C 45.40625 91.847656 45.996094 94.09375 46.242188 96.9375 L 51.628906 96.9375 C 51.894531 94.074219 52.433594 91.878906 54.042969 90.046875 C 58.125 85.40625 67.015625 87.945312 67.199219 94.484375 C 67.285156 97.492188 65.132812 101.125 58.777344 101.488281 L 56.066406 101.488281 L 56.179688 107.3125 L 56.296875 123.359375 L 62.425781 123.359375 L 63.847656 116.773438 C 65.230469 110.394531 68.320312 105.238281 73.296875 101.03125 Z M 51.71875 142.566406 L 46.148438 142.566406 C 42.695312 142.566406 39.714844 140.453125 38.550781 137.292969 L 59.316406 137.292969 C 58.148438 140.453125 55.171875 142.566406 51.71875 142.566406 Z M 46.179688 114.394531 L 46.292969 104.285156 C 46.316406 103.351562 46.339844 102.421875 46.347656 101.488281 L 51.519531 101.488281 L 51.632812 107.332031 L 51.75 123.359375 L 46.117188 123.359375 C 46.121094 120.371094 46.152344 117.34375 46.179688 114.394531 Z M 36.429688 127.910156 L 61.441406 127.910156 L 60.386719 132.761719 L 37.480469 132.761719 Z M 88.253906 77.21875 L 75.589844 77.21875 C 75.632812 71.996094 71.453125 67.644531 66.113281 67.644531 C 60.777344 67.644531 56.601562 71.992188 56.644531 77.21875 L 46.554688 77.21875 L 46.554688 64.464844 C 46.554688 62.910156 44.996094 61.796875 43.535156 62.3125 C 40.335938 63.441406 36.980469 61.042969 36.980469 57.648438 C 36.980469 54.332031 40.238281 51.886719 43.535156 53.003906 C 45 53.5 46.554688 52.417969 46.554688 50.851562 L 46.554688 32.558594 C 46.554688 31.230469 45.40625 30.152344 44.015625 30.3125 C 22.738281 32.769531 6.691406 50.816406 6.691406 72.269531 C 6.691406 84.699219 12.132812 96.441406 21.628906 104.496094 C 25.871094 108.09375 28.402344 112.296875 29.574219 117.722656 L 33.777344 137.140625 C 35.050781 143.003906 40.140625 147.113281 46.148438 147.113281 L 51.71875 147.113281 C 57.730469 147.113281 62.816406 143.003906 64.085938 137.140625 L 64.441406 135.503906 C 64.445312 135.503906 64.445312 135.503906 64.445312 135.503906 L 68.289062 117.722656 C 69.472656 112.300781 71.996094 108.09375 76.234375 104.496094 C 83.683594 98.175781 88.746094 89.457031 90.488281 79.902344 C 90.746094 78.492188 89.65625 77.21875 88.253906 77.21875 Z M 88.253906 77.21875 " fill-opacity="1" fill-rule="evenodd"/></g></svg>