<svg xmlns="http://www.w3.org/2000/svg" xmlns:xlink="http://www.w3.org/1999/xlink" width="200" zoomAndPan="magnify" viewBox="0 0 150 149.999998" height="200" preserveAspectRatio="xMidYMid meet" version="1.0"><defs><clipPath id="10c78bba3e"><path d="M 97 61 L 141.46875 61 L 141.46875 79 L 97 79 Z M 97 61 " clip-rule="nonzero"/></clipPath><clipPath id="a0a27a314b"><path d="M 8.71875 0 L 113 0 L 113 140 L 8.71875 140 Z M 8.71875 0 " clip-rule="nonzero"/></clipPath></defs><g clip-path="url(#10c78bba3e)"><path fill="#e08538" d="M 99.5 78.625 C 99.167969 78.625 98.839844 78.558594 98.542969 78.359375 C 97.589844 77.832031 97.257812 76.613281 97.785156 75.660156 C 99.960938 71.769531 102.792969 68.574219 106.222656 66.167969 C 120.292969 56.316406 138.117188 64.09375 140.128906 65.015625 C 141.117188 65.476562 141.542969 66.664062 141.082031 67.652344 C 140.621094 68.640625 139.4375 69.070312 138.449219 68.609375 C 137.722656 68.277344 120.949219 60.667969 108.460938 69.398438 C 105.527344 71.441406 103.089844 74.175781 101.246094 77.570312 C 100.882812 78.230469 100.191406 78.625 99.5 78.625 Z M 99.5 78.625 " fill-opacity="1" fill-rule="nonzero"/></g><path fill="#e08538" d="M 132.8125 116.121094 C 130.867188 116.121094 126.519531 113.222656 120.554688 107.984375 C 116.601562 104.492188 113.304688 99.054688 110.109375 93.75 C 106.054688 87.058594 101.871094 80.105469 96.566406 77.539062 C 86.679688 72.726562 72.546875 75.691406 66.351562 83.863281 C 58.902344 93.617188 51.882812 96.515625 51.589844 96.648438 C 50.566406 97.042969 49.414062 96.550781 49.019531 95.5625 C 48.621094 94.539062 49.117188 93.386719 50.105469 92.992188 C 50.203125 92.957031 56.496094 90.289062 63.21875 81.492188 C 71.359375 70.78125 87.964844 69.003906 98.3125 74.011719 C 104.640625 77.074219 109.152344 84.523438 113.503906 91.707031 C 116.667969 96.976562 119.699219 101.921875 123.191406 105.019531 C 130.277344 111.246094 132.746094 112.101562 133.042969 112.167969 C 134.03125 112.300781 134.789062 113.125 134.789062 114.144531 C 134.789062 115.234375 133.933594 116.121094 132.8125 116.121094 Z M 133.078125 112.203125 Z M 132.847656 112.167969 Z M 132.847656 112.167969 Z M 132.8125 112.167969 Z M 132.8125 112.167969 " fill-opacity="1" fill-rule="nonzero"/><path fill="#e08538" d="M 84.109375 116.320312 C 73.433594 116.320312 65.625 111.277344 62.5625 108.941406 C 61.703125 108.28125 61.539062 107.027344 62.199219 106.171875 C 62.859375 105.316406 64.109375 105.148438 64.964844 105.808594 C 68.03125 108.148438 76.335938 113.453125 87.570312 112.167969 C 96.367188 111.148438 102.433594 106.566406 105.265625 103.898438 C 106.054688 103.140625 107.308594 103.207031 108.066406 103.996094 C 108.824219 104.789062 108.757812 106.039062 107.96875 106.796875 C 104.769531 109.796875 97.949219 114.96875 88.03125 116.089844 C 86.648438 116.253906 85.363281 116.320312 84.109375 116.320312 Z M 84.109375 116.320312 " fill-opacity="1" fill-rule="nonzero"/><path fill="#e08538" d="M 58.113281 91.871094 C 57.71875 91.871094 57.289062 91.738281 56.960938 91.476562 C 56.070312 90.847656 55.871094 89.597656 56.53125 88.707031 C 56.792969 88.34375 62.890625 79.613281 59.496094 66.167969 C 55.675781 51.042969 62.527344 36.085938 62.824219 35.457031 C 63.285156 34.46875 64.472656 34.042969 65.460938 34.503906 C 66.449219 34.964844 66.878906 36.152344 66.417969 37.140625 C 66.351562 37.269531 59.890625 51.472656 63.351562 65.214844 C 67.238281 80.570312 60.058594 90.617188 59.761719 91.046875 C 59.332031 91.605469 58.738281 91.871094 58.113281 91.871094 Z M 58.113281 91.871094 " fill-opacity="1" fill-rule="nonzero"/><path fill="#e08538" d="M 74.257812 41.027344 C 65.757812 41.027344 60.15625 35.0625 59.890625 34.800781 C 59.167969 34.007812 59.199219 32.757812 59.992188 32 C 60.78125 31.273438 62.035156 31.308594 62.792969 32.097656 C 62.859375 32.164062 68.03125 37.632812 75.445312 37.007812 C 78.839844 36.742188 80.683594 35.921875 82.296875 35.226562 C 84.605469 34.238281 86.78125 33.285156 91.261719 34.636719 C 94.324219 35.558594 96.832031 35.523438 98.3125 34.503906 C 99.203125 33.878906 99.695312 32.886719 99.796875 31.539062 C 99.863281 30.417969 99.761719 29.660156 99.5 29.496094 C 99.003906 29.199219 97.71875 29.097656 96.304688 29 C 96.007812 28.96875 95.742188 28.96875 95.445312 28.933594 C 90.601562 28.605469 85.097656 21.75 84.046875 20.367188 C 83.386719 19.511719 83.550781 18.257812 84.40625 17.597656 C 85.265625 16.941406 86.515625 17.105469 87.175781 17.960938 C 89.351562 20.796875 93.46875 24.816406 95.742188 24.980469 C 96.039062 25.011719 96.304688 25.011719 96.597656 25.046875 C 98.707031 25.179688 100.355469 25.277344 101.707031 26.167969 C 103.816406 27.550781 103.914062 30.023438 103.78125 31.769531 C 103.617188 34.304688 102.496094 36.414062 100.585938 37.699219 C 98.808594 38.917969 95.578125 40.039062 90.140625 38.359375 C 87.078125 37.4375 86.023438 37.863281 83.914062 38.785156 C 82.101562 39.578125 79.828125 40.566406 75.808594 40.894531 C 75.246094 41.027344 74.753906 41.027344 74.257812 41.027344 Z M 74.257812 41.027344 " fill-opacity="1" fill-rule="nonzero"/><g clip-path="url(#a0a27a314b)"><path fill="#e08538" d="M 72.972656 139.1875 C 65.132812 139.1875 57.816406 137.738281 52.28125 135.5 C 50.105469 134.609375 47.699219 133.6875 45.164062 132.699219 C 33.5625 128.183594 19.132812 122.546875 11.550781 115.890625 C 8.585938 113.289062 7.863281 108.90625 9.773438 105.445312 C 11.882812 101.65625 12.476562 97.441406 13.167969 92.5625 C 13.828125 87.984375 14.550781 82.777344 16.691406 76.8125 C 20.417969 66.367188 27.335938 55.855469 32.871094 47.386719 C 34.980469 44.191406 36.957031 41.191406 38.539062 38.523438 C 40.582031 35.0625 41.769531 32 42.921875 29.03125 C 44.996094 23.660156 46.777344 19.015625 52.808594 14.898438 C 59.695312 10.21875 75.082031 3.429688 81.375 0.726562 C 83.945312 -0.359375 86.8125 -0.0625 89.085938 1.519531 C 92.050781 3.59375 96.335938 6.792969 99.695312 10.121094 C 104.410156 14.765625 106.089844 18.421875 104.871094 21.289062 C 102.859375 26 100.09375 27.683594 98.113281 28.273438 C 95.644531 29 93.007812 28.507812 90.46875 26.859375 C 89.546875 26.265625 89.316406 25.011719 89.910156 24.125 C 90.503906 23.199219 91.722656 22.96875 92.644531 23.5625 C 94.195312 24.585938 95.644531 24.914062 96.960938 24.519531 C 98.640625 24.023438 100.125 22.378906 101.210938 19.773438 C 101.839844 18.257812 98.542969 13.019531 86.78125 4.78125 C 85.625 3.992188 84.175781 3.824219 82.890625 4.386719 C 76.695312 7.054688 61.605469 13.710938 54.980469 18.191406 C 49.972656 21.585938 48.523438 25.308594 46.546875 30.484375 C 45.394531 33.449219 44.109375 36.84375 41.867188 40.566406 C 40.253906 43.300781 38.242188 46.332031 36.132812 49.5625 C 30.402344 58.261719 23.910156 68.144531 20.382812 78.128906 C 18.40625 83.699219 17.679688 88.707031 17.054688 93.089844 C 16.332031 98.132812 15.636719 102.910156 13.199219 107.324219 C 12.179688 109.171875 12.574219 111.511719 14.15625 112.894531 C 21.207031 119.089844 35.277344 124.589844 46.578125 128.972656 C 49.117188 129.960938 51.554688 130.917969 53.730469 131.808594 C 67.867188 137.574219 94.457031 137.671875 109.320312 119.878906 C 110.011719 119.054688 111.261719 118.925781 112.121094 119.617188 C 112.941406 120.308594 113.074219 121.558594 112.382812 122.417969 C 102.136719 134.742188 86.746094 139.1875 72.972656 139.1875 Z M 72.972656 139.1875 " fill-opacity="1" fill-rule="nonzero"/></g><path fill="#e08538" d="M 125.992188 149.929688 C 125.496094 149.929688 125.003906 149.734375 124.609375 149.371094 C 124.277344 149.042969 116.335938 141.230469 113.175781 133.816406 C 110.503906 127.65625 107.242188 126.007812 107.210938 126.007812 C 106.222656 125.578125 105.761719 124.394531 106.222656 123.40625 C 106.648438 122.417969 107.835938 121.957031 108.855469 122.417969 C 109.320312 122.613281 113.535156 124.65625 116.832031 132.269531 C 119.699219 138.925781 127.34375 146.472656 127.410156 146.535156 C 128.199219 147.292969 128.199219 148.546875 127.441406 149.335938 C 127.011719 149.734375 126.519531 149.929688 125.992188 149.929688 Z M 125.992188 149.929688 " fill-opacity="1" fill-rule="nonzero"/></svg>
