<svg xmlns="http://www.w3.org/2000/svg" xmlns:xlink="http://www.w3.org/1999/xlink" zoomAndPan="magnify" preserveAspectRatio="xMidYMid meet" version="1.0" viewBox="0 47.1 150 55.8"><defs><clipPath id="dbafe3509c"><path d="M 34 47.097656 L 45 47.097656 L 45 98 L 34 98 Z M 34 47.097656 " clip-rule="nonzero"/></clipPath><clipPath id="005da1c2a9"><path d="M 34 47.097656 L 46 47.097656 L 46 99 L 34 99 Z M 34 47.097656 " clip-rule="nonzero"/></clipPath><clipPath id="ea9ca7c77d"><path d="M 32 97 L 48 97 L 48 102.597656 L 32 102.597656 Z M 32 97 " clip-rule="nonzero"/></clipPath><clipPath id="cad67613b2"><path d="M 31 96 L 48 96 L 48 102.597656 L 31 102.597656 Z M 31 96 " clip-rule="nonzero"/></clipPath><clipPath id="a4d01ff0cf"><path d="M 105 47.097656 L 116 47.097656 L 116 98 L 105 98 Z M 105 47.097656 " clip-rule="nonzero"/></clipPath><clipPath id="02de7bf952"><path d="M 104 47.097656 L 117 47.097656 L 117 99 L 104 99 Z M 104 47.097656 " clip-rule="nonzero"/></clipPath><clipPath id="16d2b6c172"><path d="M 103 97 L 118 97 L 118 102.597656 L 103 102.597656 Z M 103 97 " clip-rule="nonzero"/></clipPath><clipPath id="b2e9bf9617"><path d="M 102 96 L 119 96 L 119 102.597656 L 102 102.597656 Z M 102 96 " clip-rule="nonzero"/></clipPath><clipPath id="47fa1f899a"><path d="M 4 47.097656 L 36 47.097656 L 36 77 L 4 77 Z M 4 47.097656 " clip-rule="nonzero"/></clipPath><clipPath id="fc98591870"><path d="M 115 47.097656 L 147 47.097656 L 147 77 L 115 77 Z M 115 47.097656 " clip-rule="nonzero"/></clipPath><clipPath id="9c4e2d1f23"><path d="M 44 47.097656 L 106 47.097656 L 106 77 L 44 77 Z M 44 47.097656 " clip-rule="nonzero"/></clipPath></defs><g clip-path="url(#dbafe3509c)"><path fill="#ffffff" d="M 42.277344 97.691406 L 44.910156 97.6875 L 44.855469 47.660156 L 42.222656 47.667969 L 42.226562 49.996094 C 42.226562 51.289062 41.179688 52.339844 39.886719 52.339844 L 39.683594 52.339844 C 38.394531 52.339844 37.347656 51.292969 37.34375 50.003906 L 37.34375 47.660156 L 34.710938 47.667969 L 34.765625 97.691406 L 37.398438 97.6875 L 37.355469 58.316406 C 37.355469 57.019531 38.40625 55.96875 39.703125 55.96875 L 39.890625 55.96875 C 41.183594 55.96875 42.234375 57.015625 42.238281 58.3125 L 42.28125 97.691406 Z M 42.277344 97.691406 " fill-opacity="1" fill-rule="nonzero"/></g><g clip-path="url(#005da1c2a9)"><path fill="#e08538" d="M 42.277344 98.253906 C 42.128906 98.253906 41.988281 98.195312 41.882812 98.089844 C 41.777344 97.984375 41.714844 97.839844 41.714844 97.691406 L 41.675781 58.3125 C 41.671875 57.332031 40.871094 56.53125 39.890625 56.53125 L 39.703125 56.53125 C 39.226562 56.53125 38.777344 56.71875 38.441406 57.054688 C 38.105469 57.390625 37.917969 57.839844 37.917969 58.316406 L 37.960938 97.6875 C 37.960938 97.996094 37.710938 98.25 37.398438 98.25 L 34.765625 98.253906 C 34.617188 98.253906 34.472656 98.195312 34.367188 98.089844 C 34.265625 97.984375 34.203125 97.84375 34.203125 97.691406 L 34.148438 47.667969 C 34.148438 47.355469 34.398438 47.105469 34.710938 47.105469 L 37.34375 47.097656 C 37.5 47.097656 37.636719 47.160156 37.742188 47.265625 C 37.847656 47.371094 37.90625 47.511719 37.90625 47.660156 L 37.90625 50.003906 C 37.910156 50.980469 38.707031 51.777344 39.683594 51.777344 L 39.886719 51.777344 C 40.359375 51.777344 40.808594 51.59375 41.144531 51.253906 C 41.476562 50.921875 41.664062 50.472656 41.664062 49.996094 L 41.660156 47.667969 C 41.660156 47.355469 41.910156 47.105469 42.222656 47.105469 L 44.855469 47.097656 C 45.003906 47.097656 45.144531 47.15625 45.25 47.261719 C 45.355469 47.367188 45.417969 47.511719 45.417969 47.660156 L 45.472656 97.6875 C 45.472656 97.996094 45.21875 98.25 44.910156 98.25 Z M 35.273438 48.226562 L 35.328125 97.128906 L 36.832031 97.125 L 36.792969 58.316406 C 36.792969 57.539062 37.09375 56.808594 37.644531 56.257812 C 38.195312 55.707031 38.925781 55.402344 39.703125 55.402344 L 39.890625 55.402344 C 41.492188 55.402344 42.796875 56.707031 42.800781 58.3125 L 42.839844 97.125 L 44.347656 97.125 L 44.292969 48.222656 L 42.785156 48.226562 L 42.789062 49.996094 C 42.789062 50.769531 42.488281 51.5 41.941406 52.050781 C 41.390625 52.597656 40.664062 52.902344 39.886719 52.902344 L 39.6875 52.902344 C 38.085938 52.902344 36.785156 51.601562 36.785156 50 L 36.78125 48.222656 Z M 35.273438 48.226562 " fill-opacity="1" fill-rule="nonzero"/></g><g clip-path="url(#ea9ca7c77d)"><path fill="#ffffff" d="M 47.160156 102.304688 L 32.214844 102.332031 L 33.585938 97.484375 L 45.777344 97.464844 Z M 47.160156 102.304688 " fill-opacity="1" fill-rule="nonzero"/></g><g clip-path="url(#cad67613b2)"><path fill="#e08538" d="M 32.214844 102.890625 C 32.039062 102.890625 31.875 102.808594 31.765625 102.667969 C 31.660156 102.527344 31.625 102.347656 31.671875 102.175781 L 33.042969 97.332031 C 33.109375 97.089844 33.332031 96.921875 33.582031 96.921875 L 45.773438 96.902344 C 46.027344 96.902344 46.246094 97.070312 46.316406 97.3125 L 47.699219 102.152344 C 47.75 102.324219 47.714844 102.503906 47.609375 102.644531 C 47.503906 102.789062 47.335938 102.871094 47.160156 102.871094 L 32.214844 102.894531 Z M 34.011719 98.046875 L 32.960938 101.765625 L 46.414062 101.742188 L 45.351562 98.027344 Z M 34.011719 98.046875 " fill-opacity="1" fill-rule="nonzero"/></g><g clip-path="url(#a4d01ff0cf)"><path fill="#ffffff" d="M 113.09375 97.691406 L 115.726562 97.6875 L 115.671875 47.660156 L 113.039062 47.667969 L 113.042969 49.996094 C 113.042969 51.289062 111.996094 52.339844 110.703125 52.339844 L 110.5 52.339844 C 109.207031 52.339844 108.164062 51.292969 108.160156 50.003906 L 108.160156 47.660156 L 105.527344 47.667969 L 105.582031 97.691406 L 108.214844 97.6875 L 108.171875 58.316406 C 108.171875 57.019531 109.222656 55.96875 110.519531 55.96875 L 110.707031 55.96875 C 112 55.96875 113.050781 57.015625 113.054688 58.3125 Z M 113.09375 97.691406 " fill-opacity="1" fill-rule="nonzero"/></g><g clip-path="url(#02de7bf952)"><path fill="#e08538" d="M 113.09375 98.253906 C 112.945312 98.253906 112.800781 98.195312 112.699219 98.089844 C 112.59375 97.984375 112.53125 97.839844 112.53125 97.691406 L 112.488281 58.3125 C 112.488281 57.332031 111.6875 56.53125 110.707031 56.53125 L 110.519531 56.53125 C 110.042969 56.53125 109.59375 56.71875 109.257812 57.054688 C 108.921875 57.390625 108.734375 57.839844 108.734375 58.316406 L 108.777344 97.6875 C 108.777344 97.996094 108.527344 98.25 108.214844 98.25 L 105.582031 98.253906 C 105.433594 98.253906 105.292969 98.195312 105.1875 98.089844 C 105.082031 97.984375 105.019531 97.84375 105.019531 97.691406 L 104.964844 47.667969 C 104.964844 47.355469 105.21875 47.105469 105.527344 47.105469 L 108.160156 47.097656 C 108.308594 47.097656 108.453125 47.160156 108.558594 47.265625 C 108.664062 47.371094 108.722656 47.511719 108.722656 47.660156 L 108.726562 50.003906 C 108.726562 50.980469 109.523438 51.777344 110.503906 51.777344 L 110.703125 51.777344 C 111.179688 51.777344 111.625 51.59375 111.960938 51.257812 C 112.296875 50.921875 112.480469 50.472656 112.480469 50 L 112.476562 47.667969 C 112.476562 47.355469 112.730469 47.105469 113.039062 47.105469 L 115.671875 47.097656 C 115.820312 47.097656 115.964844 47.160156 116.070312 47.265625 C 116.175781 47.371094 116.234375 47.511719 116.234375 47.660156 L 116.289062 97.6875 C 116.289062 97.996094 116.039062 98.25 115.730469 98.25 L 113.097656 98.253906 Z M 106.089844 48.226562 L 106.140625 97.128906 L 107.648438 97.125 L 107.609375 58.316406 C 107.609375 57.539062 107.910156 56.808594 108.460938 56.257812 C 109.007812 55.707031 109.738281 55.402344 110.519531 55.402344 L 110.703125 55.402344 C 112.304688 55.402344 113.613281 56.707031 113.613281 58.3125 L 113.65625 97.125 L 115.160156 97.125 L 115.105469 48.222656 L 113.601562 48.226562 L 113.601562 49.996094 C 113.601562 50.769531 113.300781 51.5 112.753906 52.050781 C 112.207031 52.597656 111.476562 52.902344 110.699219 52.902344 L 110.5 52.902344 C 108.898438 52.902344 107.597656 51.601562 107.597656 50 L 107.59375 48.222656 L 106.085938 48.226562 Z M 106.089844 48.226562 " fill-opacity="1" fill-rule="nonzero"/></g><g clip-path="url(#16d2b6c172)"><path fill="#ffffff" d="M 117.976562 102.304688 L 103.03125 102.332031 L 104.398438 97.484375 L 116.59375 97.464844 Z M 117.976562 102.304688 " fill-opacity="1" fill-rule="nonzero"/></g><g clip-path="url(#b2e9bf9617)"><path fill="#e08538" d="M 103.03125 102.890625 C 102.855469 102.890625 102.6875 102.808594 102.582031 102.667969 C 102.476562 102.527344 102.441406 102.347656 102.488281 102.175781 L 103.859375 97.332031 C 103.925781 97.089844 104.148438 96.921875 104.398438 96.921875 L 116.589844 96.902344 C 116.84375 96.902344 117.0625 97.070312 117.132812 97.308594 L 118.515625 102.152344 C 118.5625 102.320312 118.53125 102.503906 118.425781 102.644531 C 118.316406 102.785156 118.152344 102.867188 117.976562 102.867188 Z M 104.824219 98.046875 L 103.773438 101.765625 L 117.230469 101.742188 L 116.167969 98.027344 Z M 104.824219 98.046875 " fill-opacity="1" fill-rule="nonzero"/></g><path fill="#ffffff" d="M 149.4375 83.660156 L 0.566406 83.769531 L 0.5625 81.6875 L 149.433594 81.578125 Z M 149.4375 83.660156 " fill-opacity="1" fill-rule="nonzero"/><path fill="#e08538" d="M 0.566406 84.332031 C 0.257812 84.332031 0.00390625 84.078125 0.00390625 83.769531 L 0 81.6875 C 0 81.539062 0.0585938 81.394531 0.164062 81.289062 C 0.269531 81.1875 0.414062 81.125 0.5625 81.125 L 149.433594 81.015625 C 149.742188 81.015625 149.996094 81.265625 149.996094 81.578125 L 150 83.65625 C 150 83.808594 149.941406 83.949219 149.835938 84.054688 C 149.730469 84.160156 149.585938 84.222656 149.4375 84.222656 Z M 1.128906 82.25 L 1.128906 83.207031 L 148.875 83.097656 L 148.871094 82.140625 Z M 1.128906 82.25 " fill-opacity="1" fill-rule="nonzero"/><g clip-path="url(#47fa1f899a)"><path fill="#e08538" d="M 4.675781 76.238281 C 4.363281 76.238281 4.113281 75.988281 4.113281 75.675781 C 4.113281 75.367188 4.363281 75.117188 4.675781 75.117188 C 20.925781 75.117188 34.148438 62.800781 34.148438 47.664062 C 34.148438 47.351562 34.398438 47.101562 34.707031 47.101562 C 35.019531 47.101562 35.269531 47.351562 35.269531 47.664062 C 35.269531 63.421875 21.546875 76.242188 4.675781 76.242188 Z M 4.675781 76.238281 " fill-opacity="1" fill-rule="nonzero"/></g><g clip-path="url(#fc98591870)"><path fill="#e08538" d="M 145.761719 76.238281 C 128.890625 76.238281 115.164062 63.417969 115.164062 47.660156 C 115.164062 47.351562 115.414062 47.097656 115.726562 47.097656 C 116.035156 47.097656 116.289062 47.351562 116.289062 47.660156 C 116.289062 62.800781 129.507812 75.113281 145.757812 75.113281 C 146.070312 75.113281 146.320312 75.367188 146.320312 75.675781 C 146.320312 75.988281 146.070312 76.238281 145.757812 76.238281 Z M 145.761719 76.238281 " fill-opacity="1" fill-rule="nonzero"/></g><g clip-path="url(#9c4e2d1f23)"><path fill="#e08538" d="M 75 76.238281 C 58.128906 76.238281 44.402344 63.417969 44.402344 47.660156 C 44.402344 47.351562 44.65625 47.097656 44.964844 47.097656 C 45.277344 47.097656 45.527344 47.351562 45.527344 47.660156 C 45.527344 62.800781 58.75 75.113281 75 75.113281 C 91.25 75.113281 104.472656 62.800781 104.472656 47.660156 C 104.472656 47.351562 104.722656 47.097656 105.035156 47.097656 C 105.34375 47.097656 105.597656 47.351562 105.597656 47.660156 C 105.597656 63.417969 91.871094 76.238281 75 76.238281 Z M 75 76.238281 " fill-opacity="1" fill-rule="nonzero"/></g><path fill="#e08538" d="M 10.785156 82.140625 C 10.472656 82.140625 10.222656 81.890625 10.222656 81.578125 L 10.222656 75.097656 C 10.222656 74.789062 10.472656 74.535156 10.785156 74.535156 C 11.09375 74.535156 11.347656 74.789062 11.347656 75.097656 L 11.347656 81.578125 C 11.347656 81.890625 11.09375 82.140625 10.785156 82.140625 Z M 10.785156 82.140625 " fill-opacity="1" fill-rule="nonzero"/><path fill="#e08538" d="M 16.722656 82.140625 C 16.410156 82.140625 16.160156 81.890625 16.160156 81.578125 L 16.160156 73.332031 C 16.160156 73.019531 16.410156 72.769531 16.722656 72.769531 C 17.035156 72.769531 17.285156 73.019531 17.285156 73.332031 L 17.285156 81.578125 C 17.285156 81.890625 17.035156 82.140625 16.722656 82.140625 Z M 16.722656 82.140625 " fill-opacity="1" fill-rule="nonzero"/><path fill="#e08538" d="M 22.664062 82.140625 C 22.351562 82.140625 22.101562 81.890625 22.101562 81.578125 L 22.101562 70.101562 C 22.101562 69.789062 22.351562 69.539062 22.664062 69.539062 C 22.972656 69.539062 23.226562 69.789062 23.226562 70.101562 L 23.226562 81.578125 C 23.226562 81.890625 22.972656 82.140625 22.664062 82.140625 Z M 22.664062 82.140625 " fill-opacity="1" fill-rule="nonzero"/><path fill="#e08538" d="M 28.601562 82.140625 C 28.292969 82.140625 28.039062 81.890625 28.039062 81.578125 L 28.039062 64.597656 C 28.039062 64.285156 28.292969 64.035156 28.601562 64.035156 C 28.914062 64.035156 29.164062 64.285156 29.164062 64.597656 L 29.164062 81.578125 C 29.164062 81.890625 28.914062 82.140625 28.601562 82.140625 Z M 28.601562 82.140625 " fill-opacity="1" fill-rule="nonzero"/><path fill="#e08538" d="M 122.027344 82.140625 C 121.714844 82.140625 121.464844 81.890625 121.464844 81.578125 L 121.464844 64.832031 C 121.464844 64.519531 121.714844 64.269531 122.027344 64.269531 C 122.335938 64.269531 122.589844 64.519531 122.589844 64.832031 L 122.589844 81.578125 C 122.589844 81.890625 122.335938 82.140625 122.027344 82.140625 Z M 122.027344 82.140625 " fill-opacity="1" fill-rule="nonzero"/><path fill="#e08538" d="M 127.964844 82.140625 C 127.65625 82.140625 127.402344 81.890625 127.402344 81.578125 L 127.402344 70.230469 C 127.402344 69.921875 127.65625 69.667969 127.964844 69.667969 C 128.277344 69.667969 128.527344 69.921875 128.527344 70.230469 L 128.527344 81.578125 C 128.527344 81.890625 128.277344 82.140625 127.964844 82.140625 Z M 127.964844 82.140625 " fill-opacity="1" fill-rule="nonzero"/><path fill="#e08538" d="M 133.90625 82.140625 C 133.59375 82.140625 133.34375 81.890625 133.34375 81.578125 L 133.34375 73.410156 C 133.34375 73.097656 133.59375 72.847656 133.90625 72.847656 C 134.214844 72.847656 134.46875 73.097656 134.46875 73.410156 L 134.46875 81.578125 C 134.46875 81.890625 134.214844 82.140625 133.90625 82.140625 Z M 133.90625 82.140625 " fill-opacity="1" fill-rule="nonzero"/><path fill="#e08538" d="M 139.84375 82.140625 C 139.535156 82.140625 139.28125 81.890625 139.28125 81.578125 L 139.28125 75.132812 C 139.28125 74.824219 139.535156 74.570312 139.84375 74.570312 C 140.15625 74.570312 140.40625 74.824219 140.40625 75.132812 L 140.40625 81.578125 C 140.40625 81.890625 140.15625 82.140625 139.84375 82.140625 Z M 139.84375 82.140625 " fill-opacity="1" fill-rule="nonzero"/><path fill="#e08538" d="M 51.007812 82.140625 C 50.695312 82.140625 50.445312 81.890625 50.445312 81.578125 L 50.445312 64.515625 C 50.445312 64.203125 50.695312 63.953125 51.007812 63.953125 C 51.316406 63.953125 51.570312 64.203125 51.570312 64.515625 L 51.570312 81.578125 C 51.570312 81.890625 51.316406 82.140625 51.007812 82.140625 Z M 51.007812 82.140625 " fill-opacity="1" fill-rule="nonzero"/><path fill="#e08538" d="M 57.027344 82.140625 C 56.71875 82.140625 56.464844 81.890625 56.464844 81.578125 L 56.464844 70.109375 C 56.464844 69.800781 56.71875 69.546875 57.027344 69.546875 C 57.339844 69.546875 57.589844 69.800781 57.589844 70.109375 L 57.589844 81.578125 C 57.589844 81.890625 57.339844 82.140625 57.027344 82.140625 Z M 57.027344 82.140625 " fill-opacity="1" fill-rule="nonzero"/><path fill="#e08538" d="M 63.046875 82.140625 C 62.738281 82.140625 62.484375 81.890625 62.484375 81.578125 L 62.484375 73.371094 C 62.484375 73.058594 62.738281 72.808594 63.046875 72.808594 C 63.359375 72.808594 63.609375 73.058594 63.609375 73.371094 L 63.609375 81.578125 C 63.609375 81.890625 63.359375 82.140625 63.046875 82.140625 Z M 63.046875 82.140625 " fill-opacity="1" fill-rule="nonzero"/><path fill="#e08538" d="M 69.070312 82.140625 C 68.757812 82.140625 68.507812 81.890625 68.507812 81.578125 L 68.507812 75.128906 C 68.507812 74.820312 68.757812 74.566406 69.070312 74.566406 C 69.378906 74.566406 69.628906 74.820312 69.628906 75.128906 L 69.628906 81.578125 C 69.628906 81.890625 69.378906 82.140625 69.070312 82.140625 Z M 69.070312 82.140625 " fill-opacity="1" fill-rule="nonzero"/><path fill="#e08538" d="M 75.089844 82.140625 C 74.777344 82.140625 74.527344 81.890625 74.527344 81.578125 L 74.527344 75.675781 C 74.527344 75.367188 74.777344 75.113281 75.089844 75.113281 C 75.398438 75.113281 75.652344 75.367188 75.652344 75.675781 L 75.652344 81.578125 C 75.652344 81.890625 75.398438 82.140625 75.089844 82.140625 Z M 75.089844 82.140625 " fill-opacity="1" fill-rule="nonzero"/><path fill="#e08538" d="M 81.109375 82.140625 C 80.800781 82.140625 80.546875 81.890625 80.546875 81.578125 L 80.546875 75.097656 C 80.546875 74.785156 80.800781 74.535156 81.109375 74.535156 C 81.421875 74.535156 81.671875 74.785156 81.671875 75.097656 L 81.671875 81.578125 C 81.671875 81.890625 81.421875 82.140625 81.109375 82.140625 Z M 81.109375 82.140625 " fill-opacity="1" fill-rule="nonzero"/><path fill="#e08538" d="M 87.132812 82.140625 C 86.820312 82.140625 86.570312 81.890625 86.570312 81.578125 L 86.570312 73.296875 C 86.570312 72.984375 86.820312 72.734375 87.132812 72.734375 C 87.441406 72.734375 87.695312 72.984375 87.695312 73.296875 L 87.695312 81.578125 C 87.695312 81.890625 87.441406 82.140625 87.132812 82.140625 Z M 87.132812 82.140625 " fill-opacity="1" fill-rule="nonzero"/><path fill="#e08538" d="M 93.152344 82.140625 C 92.839844 82.140625 92.589844 81.890625 92.589844 81.578125 L 92.589844 69.984375 C 92.589844 69.671875 92.839844 69.421875 93.152344 69.421875 C 93.460938 69.421875 93.714844 69.671875 93.714844 69.984375 L 93.714844 81.578125 C 93.714844 81.890625 93.460938 82.140625 93.152344 82.140625 Z M 93.152344 82.140625 " fill-opacity="1" fill-rule="nonzero"/><path fill="#e08538" d="M 99.171875 82.140625 C 98.863281 82.140625 98.609375 81.890625 98.609375 81.578125 L 98.609375 64.289062 C 98.609375 63.980469 98.863281 63.726562 99.171875 63.726562 C 99.484375 63.726562 99.734375 63.980469 99.734375 64.289062 L 99.734375 81.578125 C 99.734375 81.890625 99.484375 82.140625 99.171875 82.140625 Z M 99.171875 82.140625 " fill-opacity="1" fill-rule="nonzero"/></svg>