<svg xmlns="http://www.w3.org/2000/svg" xmlns:xlink="http://www.w3.org/1999/xlink" width="200" zoomAndPan="magnify" viewBox="0 0 150 149.999998" height="200" preserveAspectRatio="xMidYMid meet" version="1.0"><path fill="#e08538" d="M 94.5 69.535156 L 90.238281 76.253906 C 89.792969 76.960938 89.035156 77.34375 88.257812 77.34375 C 87.828125 77.34375 87.394531 77.226562 87.003906 76.976562 L 80.285156 72.71875 C 79.191406 72.023438 78.867188 70.574219 79.558594 69.480469 C 80.253906 68.386719 81.703125 68.0625 82.796875 68.753906 L 84.703125 69.964844 C 82.886719 66.453125 79.222656 64.078125 74.996094 64.078125 C 71.234375 64.078125 67.785156 65.980469 65.769531 69.167969 C 65.074219 70.261719 63.628906 70.585938 62.53125 69.894531 C 61.4375 69.199219 61.113281 67.753906 61.804688 66.65625 C 64.6875 62.105469 69.621094 59.386719 75 59.386719 C 81.460938 59.386719 86.992188 63.265625 89.371094 68.867188 L 90.539062 67.023438 C 91.234375 65.929688 92.683594 65.605469 93.777344 66.296875 C 94.867188 66.992188 95.191406 68.445312 94.5 69.535156 Z M 87.472656 80.101562 C 86.375 79.40625 84.925781 79.734375 84.234375 80.824219 C 82.21875 84.011719 78.765625 85.914062 74.996094 85.914062 C 70.796875 85.914062 67.136719 83.542969 65.3125 80.035156 L 67.207031 81.238281 C 68.300781 81.933594 69.75 81.605469 70.441406 80.511719 C 71.136719 79.414062 70.8125 77.96875 69.71875 77.273438 L 63 73.015625 C 61.90625 72.320312 60.457031 72.644531 59.761719 73.738281 L 55.492188 80.464844 C 54.800781 81.558594 55.125 83.007812 56.21875 83.699219 C 56.605469 83.945312 57.042969 84.066406 57.472656 84.066406 C 58.246094 84.066406 59.007812 83.683594 59.453125 82.976562 L 60.636719 81.113281 C 63.019531 86.714844 68.566406 90.601562 74.992188 90.601562 C 80.378906 90.601562 85.3125 87.882812 88.195312 83.332031 C 88.890625 82.246094 88.566406 80.792969 87.472656 80.101562 Z M 14.679688 51.355469 C 7.800781 41.101562 0.00390625 29.476562 0.00390625 22.699219 C 0.00390625 10.183594 10.183594 0 22.695312 0 C 35.210938 0 45.394531 10.183594 45.394531 22.699219 C 45.394531 23.292969 45.332031 23.921875 45.222656 24.582031 L 131.59375 24.582031 C 132.886719 24.582031 133.9375 25.632812 133.9375 26.929688 L 133.9375 40.121094 C 138.9375 41.203125 142.691406 45.652344 142.691406 50.96875 C 142.691406 56.285156 138.9375 60.738281 133.9375 61.816406 L 133.9375 75 C 133.9375 76.296875 132.886719 77.347656 131.59375 77.347656 L 109.597656 77.347656 L 109.597656 77.78125 C 109.597656 79.511719 108.492188 81.035156 106.84375 81.574219 L 103.066406 82.800781 C 102.433594 85.082031 101.527344 87.277344 100.363281 89.328125 L 102.160156 92.871094 C 102.960938 94.40625 102.664062 96.277344 101.414062 97.507812 L 97.492188 101.429688 C 96.265625 102.65625 94.402344 102.949219 92.859375 102.160156 L 89.335938 100.363281 C 87.285156 101.523438 85.089844 102.433594 82.796875 103.070312 L 81.570312 106.84375 C 81.035156 108.484375 79.511719 109.59375 77.777344 109.59375 L 72.222656 109.59375 C 70.488281 109.59375 68.964844 108.488281 68.429688 106.84375 L 67.203125 103.070312 C 64.917969 102.433594 62.71875 101.527344 60.664062 100.359375 L 57.136719 102.160156 C 55.609375 102.941406 53.746094 102.65625 52.515625 101.441406 L 48.574219 97.492188 C 47.339844 96.277344 47.042969 94.40625 47.851562 92.851562 L 49.640625 89.328125 C 48.46875 87.261719 47.5625 85.066406 46.9375 82.800781 L 43.164062 81.574219 C 41.515625 81.035156 40.40625 79.511719 40.40625 77.78125 L 40.40625 77.347656 L 20.746094 77.347656 L 20.746094 88.195312 C 25.746094 89.273438 29.503906 93.726562 29.503906 99.042969 C 29.503906 104.351562 25.746094 108.800781 20.746094 109.882812 L 20.746094 120.730469 L 107.679688 120.730469 C 105.808594 116.957031 104.605469 113.554688 104.605469 110.902344 C 104.605469 98.386719 114.789062 88.199219 127.308594 88.199219 C 139.820312 88.199219 150 98.382812 150 110.902344 C 150 117.671875 142.207031 129.289062 135.328125 139.546875 C 132.835938 143.261719 130.679688 146.472656 129.347656 148.816406 C 128.929688 149.546875 128.152344 150 127.3125 150 C 126.46875 150 125.691406 149.546875 125.273438 148.816406 C 123.941406 146.476562 121.792969 143.277344 119.308594 139.570312 C 116.199219 134.941406 112.90625 130.035156 110.230469 125.421875 L 18.402344 125.421875 C 17.105469 125.421875 16.054688 124.371094 16.054688 123.074219 L 16.054688 109.882812 C 11.0625 108.800781 7.3125 104.351562 7.3125 99.042969 C 7.3125 93.730469 11.0625 89.277344 16.054688 88.195312 L 16.054688 75 C 16.054688 73.703125 17.105469 72.652344 18.402344 72.652344 L 40.402344 72.652344 L 40.402344 72.21875 C 40.402344 70.488281 41.511719 68.964844 43.160156 68.425781 L 46.933594 67.210938 C 47.554688 64.949219 48.460938 62.75 49.640625 60.679688 L 47.839844 57.140625 C 47.050781 55.601562 47.34375 53.734375 48.574219 52.507812 L 52.503906 48.582031 C 53.722656 47.363281 55.578125 47.0625 57.121094 47.835938 L 60.675781 49.648438 C 62.734375 48.480469 64.929688 47.566406 67.203125 46.933594 L 68.429688 43.171875 C 68.96875 41.523438 70.492188 40.414062 72.222656 40.414062 L 77.777344 40.414062 C 79.507812 40.414062 81.03125 41.519531 81.570312 43.171875 L 82.796875 46.933594 C 85.082031 47.570312 87.269531 48.480469 89.324219 49.648438 L 92.863281 47.84375 C 94.433594 47.058594 96.292969 47.363281 97.507812 48.597656 L 101.425781 52.507812 C 102.65625 53.738281 102.949219 55.601562 102.15625 57.148438 L 100.363281 60.679688 C 101.523438 62.730469 102.433594 64.921875 103.066406 67.210938 L 106.835938 68.429688 C 108.488281 68.96875 109.597656 70.492188 109.597656 72.222656 L 109.597656 72.65625 L 129.246094 72.65625 L 129.246094 61.816406 C 124.253906 60.738281 120.5 56.285156 120.5 50.972656 C 120.5 45.660156 124.253906 41.207031 129.246094 40.125 L 129.246094 29.277344 L 43.800781 29.277344 C 41.164062 35.785156 35.691406 43.945312 30.695312 51.390625 C 28.210938 55.09375 26.0625 58.292969 24.730469 60.628906 C 24.316406 61.363281 23.535156 61.816406 22.695312 61.816406 C 21.851562 61.816406 21.070312 61.363281 20.65625 60.628906 C 19.324219 58.28125 17.171875 55.070312 14.679688 51.355469 Z M 109.296875 110.898438 C 109.296875 113.4375 111.105469 117.464844 113.632812 121.933594 C 113.640625 121.941406 113.644531 121.949219 113.652344 121.960938 C 116.449219 126.898438 120.121094 132.371094 123.195312 136.957031 C 124.71875 139.230469 126.121094 141.316406 127.304688 143.160156 C 128.488281 141.308594 129.898438 139.210938 131.429688 136.929688 C 137.285156 128.199219 145.308594 116.242188 145.308594 110.898438 C 145.308594 100.96875 137.230469 92.890625 127.308594 92.890625 C 117.375 92.890625 109.296875 100.972656 109.296875 110.898438 Z M 18.402344 92.632812 C 14.875 92.632812 12.003906 95.507812 12.003906 99.042969 C 12.003906 102.570312 14.875 105.441406 18.402344 105.441406 C 21.9375 105.441406 24.808594 102.570312 24.808594 99.042969 C 24.808594 95.507812 21.9375 92.632812 18.402344 92.632812 Z M 104.902344 72.730469 L 101.257812 71.554688 C 99.9375 71.113281 98.988281 70.105469 98.632812 68.785156 C 98.066406 66.636719 97.222656 64.597656 96.117188 62.710938 C 95.425781 61.519531 95.386719 60.085938 96.015625 58.871094 L 97.75 55.464844 L 94.535156 52.257812 L 91.117188 53.996094 C 89.929688 54.621094 88.492188 54.585938 87.304688 53.890625 C 85.394531 52.777344 83.355469 51.929688 81.234375 51.367188 C 79.921875 51.035156 78.871094 50.050781 78.453125 48.730469 L 77.269531 45.101562 L 72.738281 45.101562 L 71.550781 48.746094 C 71.136719 50.046875 70.089844 51.03125 68.75 51.371094 C 66.652344 51.925781 64.609375 52.777344 62.707031 53.890625 C 61.511719 54.585938 60.074219 54.621094 58.863281 53.980469 L 55.46875 52.25 L 52.257812 55.460938 L 53.996094 58.882812 C 54.617188 60.085938 54.582031 61.519531 53.890625 62.703125 C 52.773438 64.617188 51.929688 66.652344 51.378906 68.761719 C 51.019531 70.105469 50.070312 71.109375 48.769531 71.542969 L 45.101562 72.730469 L 45.101562 77.265625 L 48.757812 78.453125 C 50.042969 78.867188 51.023438 79.898438 51.375 81.214844 C 51.929688 83.347656 52.773438 85.386719 53.890625 87.296875 C 54.59375 88.496094 54.628906 89.890625 53.992188 91.125 L 52.261719 94.535156 L 55.464844 97.742188 L 58.882812 95.996094 C 60.132812 95.371094 61.519531 95.417969 62.707031 96.109375 C 64.597656 97.214844 66.640625 98.0625 68.777344 98.625 C 70.132812 98.988281 71.140625 99.949219 71.5625 101.261719 L 72.742188 104.890625 L 77.28125 104.890625 L 78.464844 101.246094 C 78.878906 99.949219 79.890625 98.988281 81.234375 98.628906 C 81.238281 98.628906 81.238281 98.625 81.242188 98.625 C 83.382812 98.0625 85.421875 97.214844 87.308594 96.109375 C 88.488281 95.425781 89.914062 95.378906 91.125 95.992188 L 94.546875 97.738281 L 97.753906 94.53125 L 96.019531 91.109375 C 95.386719 89.890625 95.425781 88.496094 96.125 87.296875 C 97.234375 85.40625 98.074219 83.363281 98.640625 81.222656 C 99.003906 79.871094 99.964844 78.863281 101.277344 78.445312 L 104.914062 77.261719 L 104.914062 72.730469 Z M 131.589844 44.5625 C 128.0625 44.5625 125.191406 47.4375 125.191406 50.96875 C 125.191406 54.503906 128.0625 57.378906 131.589844 57.378906 C 135.121094 57.378906 137.996094 54.503906 137.996094 50.96875 C 137.996094 47.4375 135.121094 44.5625 131.589844 44.5625 Z M 4.695312 22.699219 C 4.695312 28.050781 12.71875 40.011719 18.574219 48.742188 C 20.105469 51.027344 21.511719 53.121094 22.699219 54.96875 C 23.878906 53.128906 25.277344 51.042969 26.800781 48.769531 C 31.550781 41.695312 37.71875 32.503906 39.898438 26.414062 C 39.933594 26.25 39.988281 26.09375 40.058594 25.945312 C 40.46875 24.707031 40.703125 23.605469 40.703125 22.699219 C 40.703125 12.769531 32.625 4.691406 22.695312 4.691406 C 12.769531 4.691406 4.695312 12.769531 4.695312 22.699219 Z M 22.695312 33.957031 C 16.382812 33.957031 11.246094 28.820312 11.246094 22.507812 C 11.246094 16.191406 16.382812 11.050781 22.695312 11.050781 C 29.011719 11.050781 34.152344 16.191406 34.152344 22.507812 C 34.152344 28.820312 29.011719 33.957031 22.695312 33.957031 Z M 22.695312 29.265625 C 26.425781 29.265625 29.460938 26.234375 29.460938 22.507812 C 29.460938 18.78125 26.425781 15.742188 22.695312 15.742188 C 18.96875 15.742188 15.9375 18.777344 15.9375 22.507812 C 15.9375 26.234375 18.972656 29.265625 22.695312 29.265625 Z M 115.847656 110.699219 C 115.847656 104.386719 120.988281 99.253906 127.304688 99.253906 C 133.617188 99.253906 138.753906 104.386719 138.753906 110.699219 C 138.753906 117.011719 133.617188 122.148438 127.304688 122.148438 C 120.988281 122.148438 115.847656 117.011719 115.847656 110.699219 Z M 120.539062 110.699219 C 120.539062 114.425781 123.574219 117.457031 127.304688 117.457031 C 131.03125 117.457031 134.0625 114.425781 134.0625 110.699219 C 134.0625 106.972656 131.03125 103.945312 127.304688 103.945312 C 123.574219 103.945312 120.539062 106.972656 120.539062 110.699219 Z M 120.539062 110.699219 " fill-opacity="1" fill-rule="nonzero"/></svg>