<svg xmlns="http://www.w3.org/2000/svg" xmlns:xlink="http://www.w3.org/1999/xlink" width="200" zoomAndPan="magnify" viewBox="0 0 150 149.999998" height="200" preserveAspectRatio="xMidYMid meet" version="1.0"><defs><clipPath id="ef8c546651"><path d="M 12.4375 0 L 137.6875 0 L 137.6875 117 L 12.4375 117 Z M 12.4375 0 " clip-rule="nonzero"/></clipPath></defs><path fill="#e08538" d="M 74.996094 26.03125 C 65.136719 26.03125 57.058594 32.609375 57.058594 44.042969 C 57.058594 47.464844 57.8125 50.957031 59.113281 54.113281 C 62.0625 61.574219 68.085938 67.46875 74.996094 67.46875 C 81.910156 67.46875 88.007812 61.582031 90.953125 54.113281 C 92.253906 50.964844 92.9375 47.472656 92.9375 44.042969 C 92.9375 32.609375 84.921875 26.03125 74.996094 26.03125 Z M 74.996094 26.03125 " fill-opacity="1" fill-rule="nonzero"/><path fill="#e08538" d="M 46.179688 130.34375 C 45.847656 129.332031 46.210938 128.222656 47.070312 127.605469 L 55.089844 121.78125 C 57.011719 120.386719 56.023438 117.351562 53.65625 117.351562 L 43.746094 117.351562 C 42.683594 117.351562 41.746094 116.667969 41.417969 115.65625 L 38.355469 106.230469 C 37.625 103.972656 34.429688 103.972656 33.691406 106.230469 L 30.632812 115.65625 C 30.304688 116.667969 29.363281 117.351562 28.304688 117.351562 L 18.394531 117.351562 C 16.019531 117.351562 15.03125 120.386719 16.957031 121.78125 L 24.980469 127.605469 C 25.839844 128.230469 26.199219 129.332031 25.871094 130.34375 L 22.8125 139.769531 C 22.082031 142.027344 24.65625 143.90625 26.585938 142.507812 L 34.605469 136.6875 C 35.464844 136.058594 36.628906 136.058594 37.488281 136.6875 L 45.511719 142.507812 C 47.429688 143.90625 50.015625 142.027344 49.285156 139.769531 L 46.226562 130.34375 Z M 46.179688 130.34375 " fill-opacity="1" fill-rule="nonzero"/><path fill="#e08538" d="M 133.0625 121.78125 C 134.980469 120.386719 133.996094 117.351562 131.625 117.351562 L 121.714844 117.351562 C 120.65625 117.351562 119.71875 116.667969 119.386719 115.65625 L 116.328125 106.230469 C 115.597656 103.972656 112.402344 103.972656 111.664062 106.230469 L 108.605469 115.65625 C 108.273438 116.667969 107.335938 117.351562 106.273438 117.351562 L 96.367188 117.351562 C 93.988281 117.351562 93 120.386719 94.929688 121.78125 L 102.949219 127.605469 C 103.808594 128.230469 104.171875 129.332031 103.839844 130.34375 L 100.78125 139.769531 C 100.050781 142.027344 102.628906 143.90625 104.554688 142.507812 L 112.578125 136.6875 C 113.4375 136.058594 114.601562 136.058594 115.460938 136.6875 L 123.484375 142.507812 C 125.402344 143.90625 127.988281 142.027344 127.257812 139.769531 L 124.199219 130.34375 C 123.867188 129.332031 124.230469 128.222656 125.089844 127.605469 L 133.109375 121.78125 Z M 133.0625 121.78125 " fill-opacity="1" fill-rule="nonzero"/><path fill="#e08538" d="M 92.632812 123.429688 L 82.722656 123.429688 C 81.664062 123.429688 80.722656 122.746094 80.394531 121.734375 L 77.335938 112.308594 C 76.605469 110.050781 73.40625 110.050781 72.667969 112.308594 L 69.609375 121.734375 C 69.28125 122.746094 68.339844 123.429688 67.28125 123.429688 L 57.371094 123.429688 C 54.996094 123.429688 54.007812 126.464844 55.933594 127.863281 L 63.957031 133.683594 C 64.816406 134.308594 65.175781 135.410156 64.847656 136.421875 L 61.789062 145.847656 C 61.058594 148.105469 63.636719 149.984375 65.5625 148.585938 L 73.585938 142.765625 C 74.445312 142.136719 75.609375 142.136719 76.46875 142.765625 L 84.488281 148.585938 C 86.410156 149.984375 88.996094 148.105469 88.261719 145.847656 L 85.203125 136.421875 C 84.875 135.410156 85.234375 134.300781 86.09375 133.683594 L 94.117188 127.863281 C 96.035156 126.464844 95.050781 123.429688 92.679688 123.429688 Z M 92.632812 123.429688 " fill-opacity="1" fill-rule="nonzero"/><g clip-path="url(#ef8c546651)"><path fill="#e08538" d="M 26.828125 104.003906 C 28.128906 100.011719 31.804688 97.316406 36.011719 97.316406 C 40.21875 97.316406 43.898438 100.003906 45.199219 104.003906 L 47.199219 110.140625 L 53.644531 110.140625 C 57.636719 110.140625 61.121094 112.5625 62.589844 116.226562 L 63.820312 116.226562 L 65.820312 110.089844 C 67.121094 106.074219 70.796875 103.402344 75.007812 103.402344 C 79.214844 103.402344 82.890625 106.066406 84.191406 110.089844 L 86.191406 116.226562 L 87.421875 116.226562 C 88.890625 112.574219 92.375 110.140625 96.367188 110.140625 L 102.8125 110.140625 L 104.8125 104.003906 C 105.464844 102.003906 106.714844 100.351562 108.324219 99.171875 C 109.9375 97.988281 111.902344 97.316406 114 97.316406 C 118.207031 97.316406 121.910156 100.003906 123.1875 104.003906 L 123.449219 104.824219 C 132.210938 93.75 137.480469 79.632812 137.480469 64.273438 C 137.480469 28.804688 109.460938 -0.03125 75.023438 -0.03125 C 40.582031 -0.03125 12.53125 28.804688 12.53125 64.273438 C 12.53125 79.632812 17.800781 93.75 26.5625 104.824219 Z M 75.007812 16.058594 C 100.558594 16.058594 121.363281 37.691406 121.363281 64.273438 C 121.363281 75.59375 117.566406 86.007812 111.261719 94.246094 L 109.488281 87.816406 C 108.933594 83.914062 107.085938 80.292969 104.347656 77.539062 C 102.5 75.761719 100.316406 74.535156 97.972656 73.636719 L 90.792969 71.59375 C 89.355469 70.898438 87.566406 71.660156 87.089844 73.226562 L 79.214844 92.820312 L 78.042969 81.921875 C 79.277344 81.714844 80.242188 80.628906 80.242188 79.328125 L 80.242188 76.925781 C 80.242188 75.425781 79.070312 74.253906 77.566406 74.253906 L 72.429688 74.253906 C 70.925781 74.253906 69.691406 75.425781 69.691406 76.925781 L 69.691406 79.328125 C 69.691406 80.621094 70.71875 81.714844 71.953125 81.921875 L 70.71875 92.675781 L 62.984375 73.160156 C 62.496094 71.59375 60.785156 70.839844 59.285156 71.515625 L 51.945312 73.636719 C 49.625 74.535156 47.421875 75.769531 45.648438 77.539062 C 42.839844 80.292969 40.984375 83.914062 40.445312 87.816406 L 38.6875 94.230469 C 32.375 85.992188 28.601562 75.585938 28.601562 64.273438 C 28.601562 37.691406 49.40625 16.058594 74.972656 16.058594 Z M 75.007812 16.058594 " fill-opacity="1" fill-rule="nonzero"/></g></svg>