<svg xmlns="http://www.w3.org/2000/svg" xmlns:xlink="http://www.w3.org/1999/xlink" zoomAndPan="magnify" preserveAspectRatio="xMidYMid meet" version="1.0" viewBox="1.33 27.19 147.35 95.28"><defs><clipPath id="1147a11499"><path d="M 1 27.28125 L 149 27.28125 L 149 122.53125 L 1 122.53125 Z M 1 27.28125 " clip-rule="nonzero"/></clipPath></defs><g clip-path="url(#1147a11499)"><path fill="#e08538" d="M 142.726562 27.191406 C 141.992188 27.191406 141.402344 27.785156 141.402344 28.515625 L 141.402344 115.199219 L 2.652344 115.199219 C 1.914062 115.199219 1.328125 115.792969 1.328125 116.527344 L 1.328125 121.144531 C 1.328125 121.878906 1.914062 122.472656 2.652344 122.472656 L 147.351562 122.472656 C 148.085938 122.472656 148.675781 121.875 148.675781 121.144531 L 148.675781 28.519531 C 148.675781 27.785156 148.085938 27.195312 147.351562 27.195312 L 142.726562 27.195312 Z M 77.355469 45.125 C 76.6875 45.121094 76.015625 45.214844 75.371094 45.429688 C 74.566406 45.695312 73.839844 46.140625 73.203125 46.683594 C 72.765625 47.054688 72.398438 47.445312 71.984375 47.75 C 71.390625 48.1875 70.671875 48.472656 69.933594 48.613281 C 69.289062 48.734375 68.613281 48.710938 67.929688 48.613281 C 67.417969 48.539062 67.085938 49.128906 67.414062 49.527344 C 67.582031 49.730469 67.761719 50.003906 68.0625 50.253906 C 68.667969 50.753906 69.34375 51.089844 69.976562 51.449219 C 73.457031 53.414062 76.359375 56.277344 79.328125 59.042969 C 81.019531 60.613281 82.730469 62.148438 84.269531 63.832031 C 84.707031 64.3125 85.109375 64.835938 85.539062 65.371094 C 85.925781 65.859375 86.703125 65.449219 86.519531 64.851562 C 86.335938 64.242188 86.171875 63.585938 85.898438 62.9375 C 85.871094 62.878906 85.84375 62.820312 85.820312 62.761719 C 85.625 62.3125 85.695312 61.789062 85.996094 61.40625 C 86.851562 60.308594 87.429688 59.011719 87.652344 57.632812 C 87.964844 55.691406 87.582031 53.6875 86.71875 51.9375 C 85.964844 50.410156 84.863281 49.074219 83.601562 47.957031 C 83.417969 47.796875 83.242188 47.632812 83.054688 47.484375 C 81.957031 46.597656 80.71875 45.828125 79.332031 45.425781 C 78.695312 45.234375 78.019531 45.128906 77.355469 45.125 Z M 68.199219 51.300781 C 68.0625 51.457031 67.90625 51.597656 67.773438 51.761719 C 66.679688 53.09375 65.792969 54.585938 65.050781 56.148438 L 65.050781 56.15625 C 64.96875 56.300781 64.890625 56.453125 64.816406 56.601562 C 64.78125 56.671875 64.742188 56.738281 64.710938 56.8125 C 64.714844 56.8125 64.722656 56.8125 64.726562 56.8125 C 63.058594 60.441406 63.617188 64.710938 66.171875 67.785156 C 66.667969 68.386719 67.226562 68.929688 67.847656 69.402344 L 67.855469 69.40625 C 68.242188 69.734375 68.628906 70.066406 68.972656 70.441406 C 69.105469 70.589844 69.304688 70.792969 69.453125 70.929688 C 70.472656 72.15625 72.265625 72.4375 73.589844 71.554688 C 73.84375 71.398438 74.101562 71.242188 74.359375 71.09375 C 74.878906 70.800781 75.398438 70.484375 75.890625 70.148438 C 76.070312 70.023438 76.25 69.890625 76.425781 69.757812 C 76.535156 69.675781 76.675781 69.679688 76.777344 69.761719 C 76.882812 69.847656 76.988281 69.925781 77.101562 69.996094 C 77.261719 70.105469 77.421875 70.203125 77.589844 70.265625 C 77.757812 70.328125 77.941406 70.359375 78.125 70.34375 C 78.277344 70.328125 78.425781 70.273438 78.535156 70.179688 C 78.648438 70.082031 78.714844 69.957031 78.777344 69.820312 C 79.015625 69.296875 79.175781 68.75 79.304688 68.191406 C 79.375 67.878906 79.4375 67.574219 79.492188 67.257812 C 79.5625 66.914062 79.753906 66.601562 80.027344 66.375 C 80.046875 66.359375 80.066406 66.351562 80.085938 66.332031 C 80.878906 65.75 81.597656 65.070312 82.226562 64.3125 C 82.445312 64.046875 82.636719 63.753906 82.835938 63.472656 C 82.339844 62.960938 81.832031 62.457031 81.304688 61.957031 C 80.480469 61.171875 79.632812 60.398438 78.789062 59.609375 C 75.804688 56.832031 72.945312 54.03125 69.613281 52.144531 C 69.191406 51.902344 68.699219 51.628906 68.199219 51.300781 Z M 56.464844 60.253906 C 55.296875 60.222656 54.109375 60.523438 53.046875 61.199219 L 31.636719 74.816406 C 29.214844 76.355469 28.273438 79.300781 29.167969 81.890625 C 29.183594 81.960938 29.183594 82.042969 29.207031 82.113281 C 29.226562 82.179688 29.253906 82.242188 29.273438 82.304688 C 30.859375 87.078125 32.230469 91.910156 33.519531 96.769531 C 28.605469 97.410156 23.675781 97.957031 18.726562 98.3125 C 18.574219 98.320312 18.417969 98.328125 18.265625 98.347656 C 15.40625 98.6875 13.363281 101.273438 13.703125 104.136719 C 14.039062 107 16.632812 109.050781 19.496094 108.707031 C 19.558594 108.699219 19.621094 108.695312 19.6875 108.679688 C 26.726562 108.171875 33.757812 107.390625 40.734375 106.320312 C 41.003906 106.285156 41.257812 106.214844 41.511719 106.136719 C 41.511719 106.136719 41.515625 106.128906 41.523438 106.128906 C 41.863281 106.027344 42.1875 105.902344 42.492188 105.738281 C 42.496094 105.734375 42.503906 105.726562 42.511719 105.722656 C 42.730469 105.605469 42.929688 105.464844 43.128906 105.320312 C 43.21875 105.253906 43.316406 105.195312 43.402344 105.121094 C 43.550781 104.996094 43.679688 104.855469 43.8125 104.710938 C 43.90625 104.613281 44.007812 104.511719 44.09375 104.40625 C 44.222656 104.25 44.332031 104.078125 44.441406 103.90625 C 44.511719 103.800781 44.582031 103.695312 44.648438 103.585938 C 44.71875 103.453125 44.769531 103.308594 44.832031 103.171875 C 44.910156 102.984375 44.988281 102.808594 45.046875 102.609375 C 45.066406 102.542969 45.074219 102.472656 45.09375 102.40625 C 45.160156 102.144531 45.210938 101.882812 45.238281 101.617188 C 45.242188 101.570312 45.242188 101.527344 45.242188 101.484375 C 45.285156 100.886719 45.242188 100.269531 45.058594 99.660156 C 45.039062 99.597656 45.027344 99.535156 45.003906 99.476562 C 44.515625 97.464844 43.957031 95.472656 43.421875 93.476562 C 46.472656 92.75 49.535156 92.070312 52.609375 91.460938 C 51.140625 94.945312 49.609375 98.402344 47.984375 101.824219 C 47.914062 101.957031 47.847656 102.09375 47.789062 102.234375 C 46.671875 104.890625 47.925781 107.949219 50.582031 109.0625 C 53.242188 110.179688 56.300781 108.921875 57.417969 106.261719 C 57.441406 106.203125 57.464844 106.148438 57.488281 106.085938 C 60.507812 99.710938 63.285156 93.203125 65.789062 86.601562 C 65.8125 86.539062 65.824219 86.480469 65.847656 86.414062 C 64.59375 85.082031 63.382812 83.714844 62.21875 82.304688 L 62.226562 82.304688 C 61.480469 81.398438 60.796875 80.464844 60.105469 79.539062 C 60.101562 79.53125 60.097656 79.523438 60.089844 79.515625 C 60.019531 79.53125 59.949219 79.523438 59.878906 79.539062 C 59.8125 79.550781 59.75 79.566406 59.6875 79.585938 C 59.433594 79.625 59.191406 79.679688 58.941406 79.722656 L 58.941406 79.714844 C 57.265625 79.992188 55.605469 80.332031 53.9375 80.636719 C 50.847656 81.207031 47.773438 81.832031 44.707031 82.515625 C 43.3125 82.824219 41.910156 83.109375 40.523438 83.441406 C 40.441406 83.179688 40.359375 82.921875 40.28125 82.664062 C 46.628906 81.140625 53.039062 79.847656 59.476562 78.800781 C 59.605469 78.765625 59.683594 78.753906 59.691406 78.753906 C 59.695312 78.753906 59.703125 78.753906 59.710938 78.753906 C 59.957031 78.699219 60.207031 78.6875 60.457031 78.671875 C 60.648438 78.929688 60.851562 79.183594 61.046875 79.441406 C 61.640625 80.222656 62.214844 81.03125 62.84375 81.789062 C 63.886719 83.046875 64.976562 84.257812 66.089844 85.457031 C 67.515625 86.996094 68.976562 88.5 70.503906 89.9375 C 70.601562 90.050781 70.71875 90.136719 70.832031 90.234375 C 70.859375 90.261719 70.886719 90.285156 70.914062 90.308594 C 71.089844 90.460938 71.269531 90.59375 71.457031 90.714844 C 71.554688 90.78125 71.65625 90.832031 71.757812 90.894531 C 71.886719 90.964844 72.011719 91.027344 72.144531 91.082031 C 72.222656 91.121094 72.292969 91.167969 72.378906 91.199219 C 73.996094 91.875 75.628906 92.53125 77.296875 93.101562 C 79.65625 93.914062 82.070312 94.578125 84.488281 95.1875 C 84.3125 95.46875 84.15625 95.765625 83.96875 96.039062 C 83.78125 96.3125 83.574219 96.578125 83.363281 96.851562 C 83.117188 97.171875 83.175781 97.632812 83.496094 97.886719 C 83.542969 97.917969 83.585938 97.949219 83.632812 97.96875 L 86.433594 99.308594 C 86.800781 99.480469 87.242188 99.324219 87.414062 98.957031 C 87.4375 98.910156 87.453125 98.863281 87.46875 98.8125 C 87.542969 98.476562 87.628906 98.152344 87.722656 97.832031 C 87.894531 97.242188 88.121094 96.667969 88.34375 96.097656 C 90.726562 96.644531 93.160156 95.292969 93.902344 92.933594 C 94.484375 91.074219 93.859375 89.125 92.46875 87.9375 C 93.992188 85.101562 95.433594 82.21875 96.59375 79.207031 L 100.394531 81.023438 C 100.835938 81.234375 101.351562 81.125 101.671875 80.761719 C 102.441406 79.878906 103.019531 78.835938 103.351562 77.714844 C 103.429688 77.453125 103.492188 77.199219 103.542969 76.949219 C 103.613281 76.589844 103.496094 76.214844 103.234375 75.960938 C 102.699219 75.433594 102.140625 74.929688 101.554688 74.445312 C 100.699219 73.730469 99.796875 73.070312 98.859375 72.460938 C 98.550781 72.25 98.164062 72.03125 97.824219 71.871094 C 97.796875 71.863281 97.777344 71.851562 97.753906 71.839844 C 97.441406 71.691406 97.0625 71.539062 96.726562 71.441406 C 95.667969 71.09375 94.578125 70.804688 93.488281 70.582031 C 92.742188 70.433594 91.996094 70.320312 91.25 70.230469 C 90.890625 70.1875 90.523438 70.335938 90.289062 70.617188 C 90.128906 70.8125 89.96875 71.019531 89.8125 71.246094 C 89.152344 72.210938 88.699219 73.300781 88.496094 74.457031 C 88.410156 74.933594 88.652344 75.40625 89.089844 75.617188 L 92.898438 77.433594 C 91.21875 80.34375 89.824219 83.390625 88.535156 86.472656 C 85.769531 85.847656 83.027344 85.121094 80.347656 84.195312 C 79.105469 83.769531 77.886719 83.277344 76.664062 82.777344 C 74.34375 80.574219 72.128906 78.25 70.089844 75.785156 C 69.117188 74.605469 68.203125 73.375 67.296875 72.132812 C 67.175781 71.949219 67.042969 71.78125 66.898438 71.617188 C 66.839844 71.546875 66.765625 71.5 66.703125 71.433594 C 66.648438 71.339844 66.617188 71.234375 66.558594 71.144531 L 61.410156 63.054688 C 60.289062 61.292969 58.410156 60.304688 56.464844 60.253906 Z M 127.878906 107.476562 L 90.453125 110.226562 C 90.097656 110.253906 89.820312 110.570312 89.84375 110.929688 L 90.042969 113.570312 C 90.070312 113.929688 90.382812 114.203125 90.742188 114.179688 L 128.171875 111.425781 C 128.53125 111.398438 128.804688 111.078125 128.777344 110.71875 L 128.585938 108.085938 C 128.558594 107.722656 128.238281 107.449219 127.878906 107.476562 Z M 7.835938 110.28125 C 7.472656 110.28125 7.175781 110.574219 7.175781 110.933594 L 7.175781 113.582031 C 7.175781 113.945312 7.472656 114.238281 7.835938 114.238281 L 45.363281 114.238281 C 45.726562 114.238281 46.015625 113.945312 46.015625 113.582031 L 46.015625 110.933594 C 46.015625 110.574219 45.726562 110.28125 45.363281 110.28125 Z M 49.488281 110.28125 C 49.125 110.28125 48.832031 110.574219 48.832031 110.933594 L 48.832031 113.582031 C 48.832031 113.945312 49.125 114.238281 49.488281 114.238281 L 87.015625 114.238281 C 87.375 114.238281 87.667969 113.945312 87.667969 113.582031 L 87.667969 110.933594 C 87.667969 110.574219 87.375 110.28125 87.015625 110.28125 Z M 49.488281 110.28125 " fill-opacity="1" fill-rule="nonzero"/></g></svg>