<svg xmlns="http://www.w3.org/2000/svg" xmlns:xlink="http://www.w3.org/1999/xlink" width="200" zoomAndPan="magnify" viewBox="0 0 150 149.999998" height="200" preserveAspectRatio="xMidYMid meet" version="1.0"><defs><clipPath id="94e0fca266"><path d="M 0.855469 0.855469 L 149.355469 0.855469 L 149.355469 149.355469 L 0.855469 149.355469 Z M 0.855469 0.855469 " clip-rule="nonzero"/></clipPath></defs><g clip-path="url(#94e0fca266)"><path fill="#e08538" d="M 145.527344 145.527344 L 4.472656 145.527344 L 4.472656 4.472656 L 58.445312 4.472656 L 71.1875 29.585938 L 54.019531 74.566406 C 53.816406 75.101562 53.878906 75.699219 54.183594 76.183594 L 76.457031 111.28125 C 76.925781 112.019531 77.859375 112.316406 78.671875 111.984375 C 79.480469 111.652344 79.9375 110.785156 79.753906 109.929688 L 72.304688 75.441406 L 94.308594 30.039062 C 94.511719 29.617188 94.546875 29.132812 94.398438 28.6875 L 86.4375 4.472656 L 145.527344 4.472656 Z M 147.335938 0.855469 L 83.941406 0.855469 C 83.359375 0.855469 82.816406 1.132812 82.476562 1.601562 C 82.136719 2.074219 82.039062 2.675781 82.222656 3.230469 L 90.734375 29.121094 L 68.78125 74.421875 C 68.605469 74.789062 68.554688 75.199219 68.640625 75.59375 L 74.078125 100.777344 L 57.722656 75.007812 L 74.851562 30.125 C 75.035156 29.648438 75.007812 29.117188 74.773438 28.664062 L 61.167969 1.84375 C 60.863281 1.238281 60.238281 0.855469 59.558594 0.855469 L 2.664062 0.855469 C 1.664062 0.855469 0.855469 1.664062 0.855469 2.664062 L 0.855469 147.335938 C 0.855469 148.335938 1.664062 149.144531 2.664062 149.144531 L 147.335938 149.144531 C 148.335938 149.144531 149.144531 148.335938 149.144531 147.335938 L 149.144531 2.664062 C 149.144531 1.664062 148.335938 0.855469 147.335938 0.855469 " fill-opacity="1" fill-rule="nonzero"/></g><path fill="#e08538" d="M 117.054688 69.007812 C 119.160156 69.007812 120.871094 67.296875 120.871094 65.191406 C 120.871094 63.085938 119.160156 61.375 117.054688 61.375 C 114.949219 61.375 113.238281 63.085938 113.238281 65.191406 C 113.238281 67.296875 114.949219 69.007812 117.054688 69.007812 " fill-opacity="1" fill-rule="nonzero"/><path fill="#e08538" d="M 27.175781 25.097656 C 25.070312 25.097656 23.359375 26.808594 23.359375 28.914062 C 23.359375 31.019531 25.070312 32.734375 27.175781 32.734375 C 29.28125 32.734375 30.992188 31.019531 30.992188 28.914062 C 30.992188 26.808594 29.28125 25.097656 27.175781 25.097656 " fill-opacity="1" fill-rule="nonzero"/><path fill="#e08538" d="M 23.15625 96.726562 C 21.050781 96.726562 19.339844 98.441406 19.339844 100.542969 C 19.339844 102.648438 21.050781 104.363281 23.15625 104.363281 C 25.261719 104.363281 26.972656 102.648438 26.972656 100.542969 C 26.972656 98.441406 25.261719 96.726562 23.15625 96.726562 " fill-opacity="1" fill-rule="nonzero"/><path fill="#e08538" d="M 38.746094 54.964844 C 36.640625 54.964844 34.925781 56.675781 34.925781 58.78125 C 34.925781 60.886719 36.640625 62.597656 38.746094 62.597656 C 40.847656 62.597656 42.5625 60.886719 42.5625 58.78125 C 42.5625 56.675781 40.847656 54.964844 38.746094 54.964844 " fill-opacity="1" fill-rule="nonzero"/><path fill="#e08538" d="M 55.851562 120.628906 C 53.746094 120.628906 52.03125 122.34375 52.03125 124.449219 C 52.03125 126.554688 53.746094 128.265625 55.851562 128.265625 C 57.957031 128.265625 59.667969 126.554688 59.667969 124.449219 C 59.667969 122.34375 57.957031 120.628906 55.851562 120.628906 " fill-opacity="1" fill-rule="nonzero"/><path fill="#e08538" d="M 89.503906 91.847656 C 89.503906 93.953125 91.21875 95.664062 93.320312 95.664062 C 95.425781 95.664062 97.140625 93.953125 97.140625 91.847656 C 97.140625 89.742188 95.425781 88.03125 93.320312 88.03125 C 91.21875 88.03125 89.503906 89.742188 89.503906 91.847656 " fill-opacity="1" fill-rule="nonzero"/><path fill="#e08538" d="M 118.613281 124.449219 C 118.613281 126.554688 120.324219 128.265625 122.429688 128.265625 C 124.535156 128.265625 126.25 126.554688 126.25 124.449219 C 126.25 122.34375 124.535156 120.628906 122.429688 120.628906 C 120.324219 120.628906 118.613281 122.34375 118.613281 124.449219 " fill-opacity="1" fill-rule="nonzero"/><path fill="#e08538" d="M 126.449219 28.714844 C 128.554688 28.714844 130.265625 27 130.265625 24.898438 C 130.265625 22.792969 128.554688 21.078125 126.449219 21.078125 C 124.34375 21.078125 122.632812 22.792969 122.632812 24.898438 C 122.632812 27 124.34375 28.714844 126.449219 28.714844 " fill-opacity="1" fill-rule="nonzero"/></svg>