<svg xmlns="http://www.w3.org/2000/svg" xmlns:xlink="http://www.w3.org/1999/xlink" width="200" zoomAndPan="magnify" viewBox="0 0 150 149.999998" height="200" preserveAspectRatio="xMidYMid meet" version="1.0"><path fill="#e08538" d="M 150 31.242188 C 150 21.78125 142.304688 14.085938 132.84375 14.085938 C 131.8125 14.085938 130.976562 14.921875 130.976562 15.953125 L 130.976562 38.640625 L 95.074219 38.640625 L 110.457031 11.992188 C 112.636719 8.21875 111.273438 3.339844 107.421875 1.113281 C 103.566406 -1.109375 98.65625 0.148438 96.480469 3.925781 L 76.433594 38.640625 L 19.023438 38.640625 L 19.023438 15.953125 C 19.023438 14.921875 18.1875 14.085938 17.15625 14.085938 C 7.695312 14.085938 0 21.78125 0 31.242188 L 0 132.84375 C 0 132.933594 0.0078125 133.023438 0.0234375 133.109375 C 0.0117188 133.199219 0.0078125 133.289062 0.0078125 133.378906 C 0.144531 137.832031 1.996094 142.007812 5.21875 145.140625 C 8.445312 148.277344 12.6875 150 17.160156 150 L 132.847656 150 C 137.320312 150 141.558594 148.273438 144.789062 145.140625 C 148.007812 142.011719 149.855469 137.835938 149.996094 133.378906 C 149.996094 133.289062 149.992188 133.199219 149.984375 133.109375 C 149.996094 133.023438 150.007812 132.933594 150.007812 132.84375 L 150.007812 31.242188 Z M 134.710938 17.949219 C 141.230469 18.863281 146.265625 24.476562 146.265625 31.246094 L 146.265625 122.167969 C 143.484375 118.679688 139.375 116.292969 134.710938 115.789062 Z M 92.96875 17.472656 L 95.105469 18.707031 L 77.597656 49.03125 L 75.460938 47.792969 Z M 96.699219 11.007812 L 104.210938 15.34375 L 102.347656 18.570312 L 94.835938 14.234375 Z M 74.59375 51.605469 L 80.105469 54.789062 L 74.164062 58.707031 Z M 82.972656 52.128906 L 80.835938 50.894531 L 98.34375 20.570312 L 100.480469 21.804688 Z M 105.550781 4.351562 C 107.65625 5.566406 108.390625 8.105469 107.222656 10.128906 L 106.078125 12.113281 L 98.5625 7.777344 L 99.710938 5.792969 C 100.875 3.773438 103.445312 3.136719 105.546875 4.355469 Z M 3.734375 31.242188 C 3.734375 24.472656 8.769531 18.859375 15.289062 17.945312 L 15.289062 115.78125 C 10.625 116.289062 6.511719 118.675781 3.734375 122.164062 Z M 132.84375 146.265625 L 17.15625 146.265625 C 9.980469 146.265625 3.960938 140.433594 3.742188 133.261719 C 3.742188 133.191406 3.730469 133.125 3.722656 133.054688 C 3.726562 132.988281 3.734375 132.914062 3.734375 132.84375 C 3.734375 125.441406 9.757812 119.421875 17.15625 119.421875 C 18.1875 119.421875 19.023438 118.585938 19.023438 117.554688 L 19.023438 42.375 L 74.277344 42.375 L 71.292969 47.542969 C 71.148438 47.792969 71.0625 48.074219 71.046875 48.363281 L 70.71875 53.84375 L 33.003906 53.84375 L 33.003906 52.15625 C 33.003906 51.125 32.164062 50.289062 31.136719 50.289062 C 30.105469 50.289062 29.269531 51.125 29.269531 52.15625 L 29.269531 59.269531 C 29.269531 60.296875 30.105469 61.136719 31.136719 61.136719 C 32.164062 61.136719 33.003906 60.296875 33.003906 59.269531 L 33.003906 57.578125 L 70.492188 57.578125 L 70.21875 62.210938 C 70.171875 62.917969 70.535156 63.589844 71.148438 63.941406 C 71.4375 64.109375 71.761719 64.191406 72.082031 64.191406 C 72.4375 64.191406 72.800781 64.089844 73.109375 63.882812 L 82.660156 57.582031 L 101.601562 57.582031 L 101.601562 59.273438 C 101.601562 60.300781 102.4375 61.140625 103.46875 61.140625 C 104.5 61.140625 105.335938 60.300781 105.335938 59.273438 L 105.335938 52.15625 C 105.335938 51.128906 104.5 50.289062 103.46875 50.289062 C 102.4375 50.289062 101.601562 51.128906 101.601562 52.15625 L 101.601562 53.847656 L 86.300781 53.847656 L 92.921875 42.378906 L 130.980469 42.378906 L 130.980469 117.558594 C 130.980469 118.585938 131.820312 119.425781 132.847656 119.425781 C 140.25 119.425781 146.273438 125.445312 146.273438 132.847656 C 146.273438 132.917969 146.277344 132.988281 146.285156 133.054688 C 146.273438 133.125 146.269531 133.195312 146.265625 133.261719 C 146.042969 140.433594 140.027344 146.265625 132.847656 146.265625 Z M 103.464844 65.6875 L 41.152344 65.6875 C 40.121094 65.6875 39.28125 66.523438 39.28125 67.554688 L 39.28125 99.015625 L 31.140625 99.015625 C 30.109375 99.015625 29.273438 99.851562 29.273438 100.882812 L 29.273438 136.484375 C 29.273438 137.515625 30.109375 138.351562 31.140625 138.351562 L 103.464844 138.351562 C 104.496094 138.351562 105.332031 137.515625 105.332031 136.484375 L 105.332031 67.554688 C 105.332031 66.523438 104.496094 65.6875 103.464844 65.6875 Z M 65.609375 134.621094 L 65.609375 114.453125 C 65.609375 113.421875 64.769531 112.585938 63.742188 112.585938 C 62.710938 112.585938 61.875 113.421875 61.875 114.453125 L 61.875 134.621094 L 33.003906 134.621094 L 33.003906 102.753906 L 63.742188 102.753906 C 64.769531 102.753906 65.609375 101.914062 65.609375 100.886719 C 65.609375 99.855469 64.769531 99.019531 63.742188 99.019531 L 43.015625 99.019531 L 43.015625 69.421875 L 61.875 69.421875 L 61.875 89.59375 C 61.875 90.621094 62.710938 91.460938 63.742188 91.460938 C 64.769531 91.460938 65.609375 90.621094 65.609375 89.59375 L 65.609375 69.421875 L 101.597656 69.421875 L 101.597656 90.46875 L 81.429688 90.46875 C 80.398438 90.46875 79.5625 91.304688 79.5625 92.335938 L 79.5625 104.71875 C 79.5625 105.746094 80.398438 106.585938 81.429688 106.585938 C 82.460938 106.585938 83.296875 105.746094 83.296875 104.71875 L 83.296875 94.203125 L 101.597656 94.203125 L 101.597656 114.847656 L 81.429688 114.847656 C 80.398438 114.847656 79.5625 115.6875 79.5625 116.71875 L 79.5625 129.097656 C 79.5625 130.128906 80.398438 130.96875 81.429688 130.96875 C 82.460938 130.96875 83.296875 130.128906 83.296875 129.097656 L 83.296875 118.585938 L 101.597656 118.585938 L 101.597656 134.621094 Z M 117.175781 69.421875 L 117.175781 134.617188 L 118.863281 134.617188 C 119.894531 134.617188 120.730469 135.453125 120.730469 136.484375 C 120.730469 137.515625 119.894531 138.351562 118.863281 138.351562 L 111.75 138.351562 C 110.71875 138.351562 109.882812 137.515625 109.882812 136.484375 C 109.882812 135.453125 110.71875 134.617188 111.75 134.617188 L 113.441406 134.617188 L 113.441406 69.421875 L 111.75 69.421875 C 110.71875 69.421875 109.882812 68.582031 109.882812 67.554688 C 109.882812 66.523438 110.71875 65.6875 111.75 65.6875 L 118.863281 65.6875 C 119.894531 65.6875 120.730469 66.523438 120.730469 67.554688 C 120.730469 68.582031 119.894531 69.421875 118.863281 69.421875 Z M 117.175781 69.421875 " fill-opacity="1" fill-rule="nonzero"/></svg>